<svg width="17" height="17" viewBox="0 0 14 14" fill="none" xmlns="http://www.w3.org/2000/svg">
<path d="M10.3829 0H1.61704C0.723989 0 0 0.723955 0 1.61702V10.3829C0 11.276 0.72396 11.9999 1.61704 11.9999H5.94034L5.9477 7.71181H4.83364C4.68886 7.71181 4.57135 7.59474 4.57079 7.44996L4.56545 6.06772C4.56489 5.92215 4.68276 5.80385 4.82833 5.80385H5.94037V4.46825C5.94037 2.91831 6.88698 2.07435 8.26965 2.07435H9.40423C9.54939 2.07435 9.66711 2.19203 9.66711 2.33722V3.50273C9.66711 3.64787 9.54948 3.76552 9.40438 3.76561L8.7081 3.76593C7.95616 3.76593 7.81056 4.12324 7.81056 4.64761V5.80388H9.46282C9.62025 5.80388 9.7424 5.94135 9.72385 6.09769L9.56002 7.47994C9.54434 7.61221 9.43218 7.71187 9.29899 7.71187H7.81793L7.81056 12H10.383C11.276 12 12 11.276 12 10.383V1.61702C12 0.723955 11.276 0 10.3829 0Z" fill="#616161"/>
</svg>
