<svg width="17" height="17" viewBox="0 0 14 14" fill="#616161" xmlns="http://www.w3.org/2000/svg">
<path d="M8.42513 0H3.57486C1.60368 0 0 1.60368 0 3.57486V8.42513C0 10.3963 1.60368 12 3.57486 12H8.42513C10.3963 12 12 10.3963 12 8.42513V3.57486C12 1.60368 10.3963 0 8.42513 0ZM10.7928 8.42513C10.7928 9.73275 9.73275 10.7928 8.42513 10.7928H3.57486C2.26725 10.7928 1.2072 9.73275 1.2072 8.42513V3.57486C1.2072 2.26723 2.26725 1.2072 3.57486 1.2072H8.42513C9.73275 1.2072 10.7928 2.26723 10.7928 3.57486V8.42513Z" fill="#616161"/>
<path d="M5.99999 2.89648C4.28865 2.89648 2.89636 4.28877 2.89636 6.00009C2.89636 7.71141 4.28865 9.10372 5.99999 9.10372C7.71133 9.10372 9.10362 7.71143 9.10362 6.00009C9.10362 4.28875 7.71133 2.89648 5.99999 2.89648ZM5.99999 7.89654C4.95261 7.89654 4.10356 7.04749 4.10356 6.00011C4.10356 4.95273 4.95263 4.10368 5.99999 4.10368C7.04737 4.10368 7.89642 4.95273 7.89642 6.00011C7.89642 7.04747 7.04734 7.89654 5.99999 7.89654Z" fill="#616161"/>
<path d="M9.10963 3.66341C9.52036 3.66341 9.85332 3.33045 9.85332 2.91972C9.85332 2.50899 9.52036 2.17603 9.10963 2.17603C8.6989 2.17603 8.36594 2.50899 8.36594 2.91972C8.36594 3.33045 8.6989 3.66341 9.10963 3.66341Z" fill="#616161"/>
</svg>
