<svg width="17" height="14" viewBox="0 0 17 14" fill="none" xmlns="http://www.w3.org/2000/svg">
<path fill-rule="evenodd" clip-rule="evenodd" d="M2.31816 0H14.6817C15.9523 0 16.9898 1.03812 16.9998 2.31473C17 2.3255 17.0001 2.33627 16.9999 2.34703V11.6667C16.9999 12.9518 15.9585 14 14.6817 14H2.31816C1.04141 14 0 12.9518 0 11.6667V2.33333C0 1.04822 1.04141 0 2.31816 0ZM15.3721 1.98645C15.2443 1.73207 14.9815 1.55554 14.6817 1.55554H2.31813C2.01836 1.55554 1.75559 1.73201 1.62778 1.98634L8.5 6.82837L15.3721 1.98645ZM1.5454 3.8271L8.05687 8.41495C8.32294 8.60241 8.67706 8.60241 8.94313 8.41495L15.4544 3.82724V11.6667C15.4544 12.0927 15.1049 12.4444 14.6817 12.4444H2.31813C1.89489 12.4444 1.5454 12.0927 1.5454 11.6667V3.8271Z" fill="#262626"/>
</svg>
