<svg width="14" height="14" viewBox="0 0 14 14" fill="none" xmlns="http://www.w3.org/2000/svg">
<path fill-rule="evenodd" clip-rule="evenodd" d="M13.378 13.4968C13.7761 13.1322 14.0018 12.6169 13.9996 12.0776L13.9996 10.1719C14.0193 9.20328 13.3111 8.37183 12.3492 8.23638C11.7773 8.16105 11.2213 8.02279 10.6862 7.82347C9.98647 7.56089 9.196 7.72918 8.66334 8.25498L8.20216 8.71536C7.02233 7.96459 6.02117 6.96518 5.2691 5.78741L5.72775 5.32955C6.25699 4.7953 6.42558 4.0062 6.162 3.30622C5.96287 2.7735 5.82437 2.2185 5.74969 1.65325C5.61409 0.695372 4.7932 -0.00936832 3.83009 9.41608e-05L1.9176 6.32389e-05C1.37838 0.000569862 0.864784 0.227035 0.501658 0.624138C0.138533 1.02124 -0.0406813 1.55241 0.00779394 2.0879C0.229327 4.17114 0.936005 6.1634 2.07156 7.91324C3.10089 9.53032 4.47829 10.9053 6.10292 11.9359C7.84291 13.0623 9.82899 13.7676 11.8966 13.9919C12.4462 14.0416 12.9799 13.8614 13.378 13.4968ZM12.7204 10.1647C12.7286 9.82479 12.4921 9.54612 12.1762 9.50161C11.5144 9.41447 10.8645 9.25286 10.2375 9.01932C10.0038 8.93162 9.74032 8.98771 9.56531 9.16046L8.75302 9.97134C8.54943 10.1746 8.2349 10.217 7.98461 10.0749C6.28327 9.10917 4.87458 7.70294 3.90717 6.00456C3.76485 5.75471 3.80731 5.44072 4.01091 5.23748L4.82067 4.42914C4.99625 4.2519 5.05244 3.98887 4.96404 3.7541C4.73064 3.12971 4.56875 2.48096 4.48226 1.8261C4.43733 1.50877 4.16369 1.27385 3.83636 1.27704L1.91817 1.27704C1.73864 1.27721 1.56744 1.3527 1.4464 1.48506C1.32535 1.61743 1.26562 1.79449 1.28079 1.96303C1.48013 3.83685 2.11882 5.63745 3.14817 7.22367C4.0798 8.68724 5.32283 9.9281 6.79393 10.8613C8.37103 11.8823 10.166 12.5197 12.0232 12.7213C12.2026 12.7374 12.3805 12.6774 12.5132 12.5558C12.6459 12.4343 12.7211 12.2626 12.7204 12.0802V10.1647ZM7.84851 9.06838L8.61692 8.96483C8.47637 8.88505 8.33807 8.80185 8.20215 8.71536L7.84851 9.06838Z" fill="#262626"/>
</svg>
