<svg xmlns="http://www.w3.org/2000/svg" viewBox="0 0 445.76 46.47"><defs><style>.cls-1{fill:#1b75bc;}</style></defs><title>Asset 3</title><g id="Layer_2" data-name="Layer 2"><g id="Layer_1-2" data-name="Layer 1"><path class="cls-1" d="M54.05,14.52V11.23a12.51,12.51,0,0,0-.79-4.56,8.8,8.8,0,0,0-2.54-3.53A12.42,12.42,0,0,0,46.2.83,23.9,23.9,0,0,0,39.46,0H0V6.87H39.46q5.81,0,5.81,4.29v3.43q0,4.29-5.81,4.29H0V46.47H8.77V25.74H33.26L44.15,46.47h9.37l-11-20.86Q48.77,25,51.41,22A11,11,0,0,0,54.05,14.52Z"/><path class="cls-1" d="M94.11,0h-6.4L56.82,46.47h9.77L90.94,9.05l24,37.42h9.9Z"/><path class="cls-1" d="M129.42,0V46.47h8.78V0Z"/><path class="cls-1" d="M201.89,25a8.8,8.8,0,0,0-2.54-3.53,12.42,12.42,0,0,0-4.52-2.31,23.93,23.93,0,0,0-6.74-.82H160.77Q155,18.29,155,14V11.16q0-4.29,5.81-4.29h39.34V0H160.77A23.83,23.83,0,0,0,154,.83a12.26,12.26,0,0,0-4.52,2.31A8.61,8.61,0,0,0,147,6.67a12.51,12.51,0,0,0-.8,4.56v2.7a12.45,12.45,0,0,0,.8,4.55A8.58,8.58,0,0,0,149.52,22,12.26,12.26,0,0,0,154,24.33a23.86,23.86,0,0,0,6.73.82h27.32c3.88,0,5.81,1.43,5.81,4.29v5.87c0,2.87-1.93,4.29-5.81,4.29H147.7v6.87h40.39a23.9,23.9,0,0,0,6.74-.83,12.42,12.42,0,0,0,4.52-2.31,8.73,8.73,0,0,0,2.54-3.53,12.45,12.45,0,0,0,.79-4.55V29.51A12.54,12.54,0,0,0,201.89,25Z"/><path class="cls-1" d="M319,0V34.52L272.71,0h-7.59V46.47h7.65V10.3l49.57,36.17h4.29V0Z"/><path class="cls-1" d="M390,25a8.8,8.8,0,0,0-2.54-3.53,12.39,12.39,0,0,0-4.53-2.31,23.81,23.81,0,0,0-6.73-.82H348.87q-5.81,0-5.81-4.29V11.16q0-4.29,5.81-4.29h39.34V0H348.87a23.83,23.83,0,0,0-6.73.83,12.26,12.26,0,0,0-4.52,2.31,8.61,8.61,0,0,0-2.54,3.53,12.51,12.51,0,0,0-.8,4.56v2.7a12.45,12.45,0,0,0,.8,4.55A8.58,8.58,0,0,0,337.62,22a12.26,12.26,0,0,0,4.52,2.31,23.86,23.86,0,0,0,6.73.82h27.32q5.81,0,5.81,4.29v5.87c0,2.87-1.94,4.29-5.81,4.29H335.8v6.87h40.39a23.78,23.78,0,0,0,6.73-.83,12.39,12.39,0,0,0,4.53-2.31A8.73,8.73,0,0,0,390,39.8a12.66,12.66,0,0,0,.79-4.55V29.51A12.76,12.76,0,0,0,390,25Z"/><path class="cls-1" d="M398,0V6.87h47.79V0Zm8.78,39.6V25.35h23.59V18.48H398v28h47.79V39.6Z"/><path class="cls-1" d="M209.87,0V6.87h47.79V0Zm8.78,39.6V25.35h23.59V18.48H209.87v28h47.79V39.6Z"/></g></g></svg>