<svg width="19" height="17" viewBox="0 0 16 14" fill="none" xmlns="http://www.w3.org/2000/svg">
<path d="M0.24344 5.75396L3.41921 6.93926L4.64843 10.8924C4.72708 11.1456 5.03669 11.2392 5.24218 11.0712L7.01241 9.62804C7.19797 9.47685 7.46228 9.46932 7.6562 9.61008L10.8491 11.9282C11.0689 12.088 11.3803 11.9675 11.4355 11.7019L13.7744 0.451124C13.8346 0.160955 13.5495 -0.0811119 13.2732 0.0257487L0.239719 5.05367C-0.0819195 5.17771 -0.0791171 5.63308 0.24344 5.75396ZM4.45033 6.30829L10.657 2.48561C10.7685 2.41711 10.8833 2.56794 10.7875 2.65679L5.66522 7.4182C5.48517 7.58579 5.36903 7.81008 5.33614 8.05353L5.16165 9.34661C5.13854 9.51925 4.89601 9.53639 4.84837 9.3693L4.1773 7.01134C4.10044 6.74239 4.21244 6.45512 4.45033 6.30829Z" fill="#616161"/>
</svg>
