<svg width="20" height="17" viewBox="0 0 17 14" fill="none" xmlns="http://www.w3.org/2000/svg">
<path d="M13.8931 1.39597C13.5794 1.53811 13.2538 1.65024 12.9197 1.73141C13.2879 1.37392 13.5647 0.926767 13.7208 0.427666C13.7654 0.285181 13.614 0.161971 13.4881 0.23826C13.0232 0.519994 12.5226 0.731347 11.9999 0.866516C11.9696 0.87436 11.9383 0.878334 11.9069 0.878334C11.8117 0.878334 11.7191 0.842212 11.6463 0.77665C11.0902 0.275825 10.375 0 9.63247 0C9.31116 0 8.98674 0.0511764 8.66822 0.152122C7.68132 0.464914 6.91984 1.29678 6.68093 2.32313C6.5913 2.70809 6.56703 3.09341 6.60875 3.46835C6.61354 3.51144 6.59361 3.54151 6.58132 3.55562C6.55974 3.58034 6.52914 3.59452 6.49737 3.59452C6.49382 3.59452 6.49017 3.59434 6.48656 3.59399C4.32627 3.3889 2.37822 2.32538 1.00124 0.599379C0.931022 0.511342 0.79637 0.52214 0.740403 0.620237C0.470754 1.09296 0.328254 1.63363 0.328254 2.18381C0.328254 3.02697 0.659756 3.82156 1.23557 4.40082C0.993426 4.34215 0.759058 4.24975 0.54135 4.12619C0.436024 4.06639 0.306432 4.14325 0.304952 4.26635C0.289876 5.51892 1.00754 6.63348 2.08262 7.13536C2.06097 7.13589 2.03932 7.13613 2.01764 7.13613C1.84722 7.13613 1.67467 7.11932 1.50484 7.08615C1.38623 7.06301 1.28658 7.17799 1.32341 7.2955C1.67237 8.40875 2.61039 9.22933 3.7329 9.41565C2.80128 10.0547 1.71639 10.3918 0.587232 10.3918L0.235216 10.3916C0.126758 10.3916 0.0350278 10.4638 0.00738831 10.5712C-0.0198381 10.6769 0.0303122 10.7884 0.1228 10.8434C1.39518 11.6001 2.84651 12 4.32053 12C5.61077 12 6.81768 11.7383 7.90777 11.2224C8.9071 10.7493 9.79018 10.0731 10.5325 9.21256C11.224 8.4109 11.7647 7.48547 12.1396 6.46201C12.497 5.48642 12.6859 4.44545 12.6859 3.45161V3.40427C12.6859 3.24469 12.7565 3.09454 12.8797 2.99232C13.3473 2.60437 13.7545 2.14768 14.09 1.63497C14.1785 1.49959 14.0389 1.32992 13.8931 1.39597Z" fill="#616161"/>
</svg>
