<?xml version="1.0" encoding="UTF-8"?>
<!DOCTYPE svg PUBLIC "-//W3C//DTD SVG 1.1//EN" "http://www.w3.org/Graphics/SVG/1.1/DTD/svg11.dtd">
<!-- Creator: CorelDRAW 2018 (64-Bit) -->
<svg xmlns="http://www.w3.org/2000/svg" xml:space="preserve" width="250px" height="74px" version="1.1" style="shape-rendering:geometricPrecision; text-rendering:geometricPrecision; image-rendering:optimizeQuality; fill-rule:evenodd; clip-rule:evenodd"
viewBox="0 0 1312.65 352.71"
 xmlns:xlink="http://www.w3.org/1999/xlink">
 <defs>
  <style type="text/css">
   <![CDATA[
    .fil0 {fill:#FEFEFE}
    .fil2 {fill:#ED3237}
    .fil1 {fill:#FEFEFE;fill-rule:nonzero}
   ]]>
  </style>
 </defs>
 <g id="Слой_x0020_1">
  <metadata id="CorelCorpID_0Corel-Layer"/>
  <path class="fil0" d="M1279 113.31c5.65,0 11.17,1.45 16.56,4.34 5.38,2.91 9.58,7.05 12.58,12.46 3,5.39 4.51,11.03 4.51,16.89 0,5.8 -1.48,11.38 -4.45,16.73 -2.96,5.36 -7.11,9.52 -12.45,12.48 -5.35,2.97 -10.92,4.45 -16.76,4.45 -5.84,0 -11.43,-1.48 -16.76,-4.45 -5.35,-2.96 -9.5,-7.11 -12.47,-12.48 -2.99,-5.35 -4.46,-10.92 -4.46,-16.73 0,-5.87 1.51,-11.5 4.52,-16.89 3.02,-5.41 7.22,-9.55 12.61,-12.46 5.38,-2.89 10.91,-4.34 16.56,-4.34zm0 5.58c-4.74,0 -9.34,1.22 -13.82,3.64 -4.48,2.42 -7.98,5.9 -10.51,10.39 -2.53,4.51 -3.79,9.2 -3.79,14.09 0,4.84 1.25,9.49 3.73,13.94 2.48,4.45 5.96,7.92 10.42,10.4 4.46,2.48 9.11,3.73 13.97,3.73 4.84,0 9.5,-1.25 13.97,-3.73 4.46,-2.49 7.92,-5.96 10.39,-10.4 2.47,-4.45 3.7,-9.1 3.7,-13.94 0,-4.89 -1.25,-9.58 -3.76,-14.09 -2.52,-4.49 -6.02,-7.97 -10.51,-10.39 -4.49,-2.42 -9.09,-3.64 -13.79,-3.64zm-14.78 46.72l0 -36.23 12.44 0c4.26,0 7.34,0.32 9.25,0.99 1.91,0.67 3.41,1.84 4.55,3.5 1.13,1.68 1.69,3.44 1.69,5.32 0,2.65 -0.94,4.95 -2.83,6.91 -1.89,1.97 -4.4,3.06 -7.53,3.31 1.28,0.53 2.31,1.17 3.08,1.92 1.46,1.43 3.24,3.82 5.36,7.19l4.42 7.08 -7.14 0 -3.21 -5.71c-2.53,-4.48 -4.55,-7.3 -6.11,-8.43 -1.07,-0.84 -2.64,-1.25 -4.69,-1.25l-3.43 0 0 15.39 -5.85 0zm5.85 -20.38l7.1 0c3.38,0 5.7,-0.52 6.93,-1.52 1.23,-1 1.86,-2.35 1.86,-4.02 0,-1.07 -0.31,-2.03 -0.9,-2.88 -0.59,-0.84 -1.42,-1.48 -2.47,-1.89 -1.07,-0.43 -3.02,-0.62 -5.88,-0.62l-6.64 0 0 10.94z"/>
  <path class="fil1" d="M524.61 325.3l-58.21 0 -8.36 27.4 -52.44 0 62.58 -166.26 56.23 0 62.31 166.26 -53.79 0 -8.32 -27.4zm-10.88 -35.99l-18.15 -59.76 -18.23 59.76 36.38 0zm88.74 -102.87l67.77 0 25.81 101.17 25.89 -101.17 67.46 0 0 166.26 -42.03 0 0 -126.75 -32.43 126.75 -38.08 0 -32.35 -126.75 0 126.75 -42.03 0 0 -166.26zm221.72 0l51.55 0 0 166.26 -51.55 0 0 -166.26zm88.74 0l47.95 0 62.35 91.8 0 -91.8 48.53 0 0 166.26 -48.53 0 -62 -91.3 0 91.3 -48.3 0 0 -166.26zm292.97 138.86l-58.21 0 -8.36 27.4 -52.44 0 62.58 -166.26 56.23 0 62.31 166.26 -53.79 0 -8.32 -27.4zm-10.88 -35.99l-18.15 -59.76 -18.23 59.76 36.38 0z"/>
  <path class="fil0" d="M178.64 153.56c-38.69,11.85 -70.46,28.7 -95.54,53.17l104.66 -206.73c19.46,41.09 39.24,82.05 59.54,122.82 -25.89,8.93 -48.1,20.57 -68.67,30.74zm86.72 5.17c33.16,65.34 67.86,130.12 104.98,193.97l-42.13 0c-34.14,-53.27 -72.32,-104.23 -112.49,-154.06 15.41,-14.22 32.19,-27.33 49.65,-39.92z"/>
  <path class="fil2" d="M76.6 352.71c45.77,-94.66 142.52,-181.02 281.7,-259.61 -179.97,42.49 -290.93,135.19 -358.31,259.61l76.6 0z"/>
 </g>
</svg>
