<svg width="1436" height="180" viewBox="0 0 1436 180" fill="none" xmlns="http://www.w3.org/2000/svg">
<path d="M0.5625 1.09887C0.87367 1.09887 1.11303 0.850738 1.11303 0.543527C1.11303 0.248132 0.87367 0 0.5625 0C0.25133 0 0 0.248132 0 0.543527C0 0.850738 0.25133 1.09887 0.5625 1.09887Z" transform="translate(16.707 69.3354) scale(4)" fill="#0065B3"/>
<path d="M0.5625 1.09887C0.87367 1.09887 1.11303 0.850738 1.11303 0.543527C1.11303 0.248132 0.87367 0 0.5625 0C0.25133 0 0 0.248132 0 0.543527C0 0.850738 0.25133 1.09887 0.5625 1.09887Z" transform="translate(158.792 69.3354) scale(4)" fill="#0065B3"/>
<path d="M22.5 0C10.0771 0 0 9.9489 0 22.2137C0 34.4785 10.0771 44.4156 22.5 44.4156C34.9229 44.4156 45 34.4785 45 22.2137C45 9.9489 34.9229 0 22.5 0ZM22.5 43.8248C10.4122 43.8248 0.610372 34.1477 0.610372 22.2137C0.610372 10.2797 10.4122 0.602606 22.5 0.602606C34.5878 0.602606 44.3896 10.2797 44.3896 22.2137C44.3896 34.1477 34.5878 43.8248 22.5 43.8248Z" transform="scale(4)" fill="#0065B3"/>
<path d="M14.3378 0C6.41489 0 0 6.33327 0 14.1553C0 21.9774 6.41489 28.3107 14.3378 28.3107C22.2606 28.3107 28.6755 21.9774 28.6755 14.1553C28.6755 6.33327 22.2606 0 14.3378 0ZM14.3378 27.9798C6.60638 27.9798 0.335106 21.7883 0.335106 14.1553C0.335106 6.52232 6.60638 0.330842 14.3378 0.330842C22.0691 0.330842 28.3404 6.52232 28.3404 14.1553C28.3404 21.7883 22.0691 27.9798 14.3378 27.9798Z" transform="translate(32.6489 32.2334) scale(4)" fill="#0065B3"/>
<path d="M18.2513 4.36003H14.9601V3.54474H13.7154V0H8.67686C7.70745 0 6.90558 0.319026 6.35505 0.921632C5.85239 1.48879 5.57713 2.26863 5.57713 3.19027V4.36003H1.62766L0 19.567L9.94548 23.7498L19.891 19.567L18.2513 4.36003ZM9.95745 23.3953H9.94548H9.92154L0.382979 19.3779L0.347074 19.3661V19.3306L1.92686 4.72632V4.69087H1.96277H5.90027V3.19027C5.90027 2.35134 6.1516 1.6424 6.60638 1.13432C7.08511 0.602606 7.80319 0.319026 8.67686 0.319026H13.3324H13.3803V0.36629V3.86377H14.5891H14.637V3.91103V4.69087H17.9162H17.9641V4.72632L19.5319 19.3306L19.5439 19.3661L19.508 19.3779L9.95745 23.3953Z" transform="translate(50.9365 42.6313) scale(4)" fill="#0065B3"/>
<path fill-rule="evenodd" clip-rule="evenodd" d="M1.25665 1.09887H1.20878H0V3.34387H1.20878H1.25665V3.39113V3.91103H4.48803L4.05718 0H1.25665V1.05161V1.09887Z" transform="translate(104.458 63.6636) scale(4)" fill="#0065B3"/>
<path fill-rule="evenodd" clip-rule="evenodd" d="M0.418883 0L0 3.91103H3.87766V0H0.418883Z" transform="translate(59.0264 63.6636) scale(4)" fill="#0065B3"/>
<path fill-rule="evenodd" clip-rule="evenodd" d="M16.9468 0H13.6676V1.32337V1.37063H13.6197H12.4109V3.2139V3.26116H12.363H8.56915H8.52128V3.2139V0H7.06117V0.36629C7.06117 2.245 5.30186 3.2139 3.55452 3.2139H3.43484H3.38697V3.17845V1.24066V1.1934H3.43484H3.49468C4.32048 1.1934 4.93085 0.768027 4.93085 0.200869V0H0.993351L0 9.29903L8.97606 13.0801L17.9521 9.29903L16.9468 0ZM5.68484 5.87245C5.50532 5.87245 5.38564 5.95516 5.30186 6.09695C5.21808 6.25056 5.18218 6.41598 5.18218 6.59322H4.88298C4.87101 6.29782 4.93085 6.04969 5.08644 5.86064C5.23005 5.65977 5.43351 5.56524 5.70878 5.56524C5.93617 5.56524 6.12766 5.63614 6.28324 5.77793C6.43883 5.91972 6.51064 6.1324 6.51064 6.40416C6.51064 6.66411 6.4508 6.86498 6.31915 7.00677C6.19947 7.16037 6.05585 7.29035 5.90027 7.39669C5.73271 7.51485 5.57713 7.62119 5.43351 7.73935C5.28989 7.84569 5.20612 7.9993 5.17021 8.17653H6.4867V8.48374H4.81117C4.83511 8.14109 4.91888 7.88114 5.05053 7.71572C5.19415 7.56211 5.34973 7.40851 5.52925 7.29035C5.75665 7.13674 5.91223 6.99495 6.01995 6.8768C6.13963 6.75864 6.1875 6.59322 6.1875 6.39235C6.1875 6.23874 6.13963 6.10877 6.04388 6.01424C5.93617 5.91972 5.82846 5.87245 5.68484 5.87245ZM7.80319 8.53101C7.39628 8.53101 7.15691 8.36559 7.07314 8.03474C6.98936 7.69209 6.94149 7.37306 6.94149 7.05403C6.94149 6.72319 6.98936 6.39235 7.07314 6.06151C7.15691 5.73066 7.39628 5.56524 7.80319 5.56524C8.21011 5.56524 8.44947 5.73066 8.53324 6.06151C8.61702 6.39235 8.65293 6.72319 8.65293 7.05403C8.65293 7.37306 8.61702 7.69209 8.53324 8.03474C8.44947 8.36559 8.21011 8.53101 7.80319 8.53101ZM7.80319 5.87245C7.53989 5.87245 7.38431 6.01424 7.33644 6.29782C7.28856 6.5814 7.2766 6.82953 7.2766 7.05403C7.2766 7.26672 7.28856 7.51485 7.33644 7.79843C7.38431 8.08201 7.53989 8.2238 7.80319 8.2238C8.06649 8.2238 8.22207 8.08201 8.26995 7.79843C8.30585 7.51485 8.32979 7.26672 8.32979 7.05403C8.32979 6.82953 8.30585 6.5814 8.26995 6.29782C8.22207 6.01424 8.06649 5.87245 7.80319 5.87245ZM10.1968 5.56524V8.48374H9.83777V6.38053H9.17952V6.10877C9.34707 6.10877 9.51463 6.07332 9.64628 6.00243C9.78989 5.93153 9.87367 5.78974 9.90957 5.56524H10.1968ZM12.4588 5.56524V7.49122H12.734V7.79843H12.4588V8.48374H12.1596V7.79843H11.0226V7.44395L12.1955 5.56524H12.4588ZM11.2859 7.49122H12.1596V6.06151H12.1476L11.2859 7.49122Z" transform="translate(54.814 81.4341) scale(4)" fill="#0065B3"/>
<path fill-rule="evenodd" clip-rule="evenodd" d="M1.46011 3.91103V0H0V3.91103H1.46011Z" transform="translate(83.0586 63.6636) scale(4)" fill="#0065B3"/>
<path fill-rule="evenodd" clip-rule="evenodd" d="M0.993351 0C0.514628 0 0 0.330842 0 1.07524V2.55221H1.46011V0H0.993351ZM1.13697 2.22137H0.323138V1.07524C0.323138 0.519895 0.682181 0.319027 0.993351 0.319027H1.13697V2.22137Z" transform="translate(83.0586 51.186) scale(4)" fill="#0065B3"/>
<path d="M0 0.106342L0.239362 0.0945264L0.359043 1.796L0.107713 1.80782L0.119681 1.87871L0.897606 1.81963V1.76055L0.646277 1.77237L0.538564 0.0708948L0.777925 0.059079V0L0 0.0472632V0.106342Z" transform="translate(83.4419 13.0444) scale(4)" fill="#0065B3"/>
<path d="M1.73537 0.449L2.01064 0.531711L1.61569 1.71329H1.60372L1.14894 0.189053L0.586436 0L0.5625 0.059079L0.789894 0.14179L0.25133 1.76055L0.0239362 1.67784L0 1.73692L0.574468 1.92597L0.598404 1.8669L0.323138 1.78419L0.849734 0.212684V0.2245L1.46011 2.245L1.51995 2.25682L2.08245 0.555342L2.30984 0.626237L2.33378 0.567158L1.75931 0.389921L1.73537 0.449Z" transform="translate(108.287 15.5967) scale(4)" fill="#0065B3"/>
<path d="M0.0239362 0.437185L0.239362 0.319027L1.10106 1.796L0.897606 1.91416L0.921543 1.97324L1.60372 1.58332L1.56782 1.52424L1.36436 1.6424L0.50266 0.165421L0.706117 0.0472632L0.670213 0L0 0.378106L0.0239362 0.437185Z" transform="translate(50.2661 22.3555) scale(4)" fill="#0065B3"/>
<path d="M2.16622 1.11068L2.30984 1.347L1.20878 1.94961L1.19681 1.93779L1.91489 0.519895L1.62766 0L1.56782 0.0354474L1.6875 0.236316L0.167553 1.06342L0.0598404 0.862553L0 0.886185L0.299202 1.40608L0.347074 1.38245L0.215426 1.13432L1.66356 0.330842L1.67553 0.342658L0.730053 2.245L0.765957 2.28045L2.34574 1.4179L2.45346 1.61876L2.5133 1.59513L2.22606 1.07524L2.16622 1.11068Z" transform="translate(148.883 48.9644) scale(4)" fill="#0065B3"/>
<path d="M2.02261 0.779843L2.19016 0.933448L1.66356 1.52424L1.05319 0.992527L1.59176 0.401737L1.77128 0.555343L1.80718 0.508079L1.23271 0L1.18484 0.0472632L1.37633 0.212684L0.227394 1.47697L0.0359043 1.32337L0 1.37063L0.574468 1.87871L0.610372 1.83145L0.442819 1.67784L1.01729 1.03979L1.61569 1.5715L1.04122 2.20955L0.87367 2.05595L0.825798 2.10321L1.40027 2.61129L1.44814 2.56403L1.26862 2.39861L2.41755 1.13432L2.59707 1.28792L2.64495 1.24066L2.05851 0.73258L2.02261 0.779843Z" transform="translate(133.42 29.7754) scale(4)" fill="#0065B3"/>
<path d="M0.670213 0.6735L0.801862 0.484448L1.47207 0.921632L1.01729 1.58332L0.347074 1.14613L0.478723 0.945264L0.430851 0.909816L0 1.54787L0.0478723 1.58332L0.179521 1.38245L1.61569 2.33953L1.48404 2.5404L1.53191 2.57584L1.96277 1.93779L1.91489 1.90234L1.78324 2.0914L1.06516 1.61876L1.51995 0.95708L2.23803 1.44153L2.10638 1.63058L2.15426 1.66603L2.58511 1.02797L2.53723 0.992527L2.39362 1.1934L0.969415 0.236316L1.10106 0.0354474L1.05319 0L0.62234 0.638053L0.670213 0.6735Z" transform="translate(24.3193 43.1514) scale(4)" fill="#0065B3"/>
<path d="M1.73537 0.0236316L1.6875 0L0.227394 1.22884L0.0359043 1.11069L0 1.16976L0.50266 1.46516L0.538564 1.40608L0.299202 1.27611L0.765958 0.874369L1.17287 1.1225L1.02926 1.70148L0.789894 1.5715L0.765958 1.61876L1.48404 2.04413L1.50798 1.99687L1.30452 1.8669L1.73537 0.0236316ZM0.825798 0.81529L1.36436 0.378106L1.19681 1.03979L0.825798 0.81529Z" transform="translate(122.84 23.7734) scale(4)" fill="#0065B3"/>
<path d="M0.0359043 0L0 0.0472632L0.981383 1.67784L0.837766 1.83145L0.885638 1.87871L1.26862 1.44153L1.22074 1.40608L1.04122 1.60695L0.718085 1.08705L1.04122 0.720764L1.59176 0.968895L1.4242 1.16976L1.47207 1.21703L2.01064 0.59079L1.96277 0.543527L1.80718 0.720764L0.0359043 0ZM0.682181 1.01616L0.323138 0.425369L0.957447 0.697132L0.682181 1.01616Z" transform="translate(31.5957 39.2759) scale(4)" fill="#0065B3"/>
<path d="M1.00532 0.413553L1.22074 0.236316L2.02261 1.13432C2.22606 1.37063 2.32181 1.54787 1.9508 1.8669C1.63963 2.13866 1.48404 2.06776 1.25665 1.81963L0.442819 0.909816L0.634308 0.744395L0.586436 0.697132L0 1.20521L0.0359043 1.25247L0.215426 1.09887L1.05319 2.04413C1.29255 2.29226 1.47207 2.38679 1.9508 1.97324C2.40559 1.58332 2.33378 1.37063 2.09441 1.09887L1.26862 0.189053L1.43617 0.0472632L1.40027 0L0.957447 0.36629L1.00532 0.413553Z" transform="translate(36.4312 29.4448) scale(4)" fill="#0065B3"/>
<path d="M0.634308 0.555343L0.765957 0.307211L1.87899 0.886185L0.275266 1.09887L0 1.61876L0.0598404 1.6424L0.167553 1.42971L1.69947 2.22137L1.59176 2.43405L1.6516 2.45769L1.92686 1.93779L1.86702 1.90234L1.73537 2.15048L0.263298 1.39426L2.39362 1.1225L2.40559 1.06342L0.801862 0.248132L0.909574 0.0354474L0.849734 0L0.574468 0.531711L0.634308 0.555343Z" transform="translate(20.1069 50.5244) scale(4)" fill="#0065B3"/>
<path d="M1.05319 0.389921L1.29255 0.236316L2.01064 1.25247H1.99867L0.490692 0.708948L0 1.03979L0.0359043 1.09887L0.239362 0.95708L1.22074 2.36316L1.02926 2.49313L1.06516 2.5404L1.55585 2.20955L1.51995 2.15048L1.28059 2.3159L0.335106 0.968895V0.95708L2.35771 1.70147L2.38165 1.65421L1.35239 0.189053L1.54388 0.059079L1.50798 0L1.01729 0.342658L1.05319 0.389921Z" transform="translate(43.0845 24.3877) scale(4)" fill="#0065B3"/>
<path d="M0.0598404 0.744395L0.155585 0.519895L1.74734 1.16976L1.66356 1.39426L1.7234 1.4179L2.02261 0.697132L1.96277 0.673501L1.86702 0.898001L0.275266 0.248132L0.359043 0.0236316L0.299202 0L0 0.720764L0.0598404 0.744395Z" transform="translate(18.4312 58.3228) scale(4)" fill="#0065B3"/>
<path d="M1.06516 0.295395L1.30452 0.177237L1.47207 1.59513L0.490692 0.567158L0.730053 0.449L0.706117 0.389921L0 0.720764L0.0239362 0.779843L0.215426 0.697132L1.54388 2.05595L1.59176 2.03232L1.3883 0.14179L1.55585 0.059079L1.53191 0L1.04122 0.236316L1.06516 0.295395Z" transform="translate(54.0957 18.7163) scale(4)" fill="#0065B3"/>
<path d="M1.47207 1.85508L1.0891 1.98505L0.81383 1.1934L0.945479 1.14613C1.23271 1.05161 1.28059 1.13432 1.3883 1.42971L1.46011 1.40608L1.17287 0.578974L1.10106 0.602606C1.19681 0.862553 1.20878 0.980711 0.921543 1.07524L0.789894 1.1225L0.526596 0.378106L0.646277 0.330842C1.20878 0.14179 1.31649 0.153605 1.54388 0.555343L1.60372 0.531711L1.40027 0L0 0.484448L0.0119681 0.543527L0.25133 0.472632L0.81383 2.07958L0.586436 2.16229L0.610372 2.22137L2.08245 1.71329L1.89096 1.11069L1.83112 1.13432C1.90293 1.50061 1.84309 1.72511 1.47207 1.85508Z" transform="translate(61.7554 16.2583) scale(4)" fill="#0065B3"/>
<path d="M0.586436 1.77237L0.359043 1.45334L1.05319 0.968895L1.13697 1.08705C1.30452 1.33519 1.24468 1.39426 0.981383 1.58332L1.01729 1.6424L1.74734 1.13432L1.69947 1.07524C1.47207 1.24066 1.37633 1.28792 1.19681 1.03979L1.11303 0.921632L1.77128 0.472632L1.84309 0.567158C2.19016 1.05161 2.20213 1.15795 1.87899 1.47697L1.91489 1.53605L2.36968 1.20521L1.51995 0L1.47207 0.0354474L1.60372 0.236316L0.191489 1.20521L0.0478723 1.01616L0 1.05161L0.897606 2.3159L1.4242 1.97324L1.3883 1.91416C1.05319 2.07958 0.81383 2.0914 0.586436 1.77237Z" transform="translate(145.005 42.7734) scale(4)" fill="#0065B3"/>
<path d="M1.6875 1.22758C1.56782 0.837657 1.44814 0.814025 1.05319 0.849473C1.29255 0.754946 1.46011 0.636788 1.3883 0.341393C1.30452 -0.0248964 1.06516 -0.0367122 0.742021 0.0341826L0 0.21142L0.0119681 0.270499L0.25133 0.21142L0.646277 1.87745L0.406915 1.93653L0.418883 1.9956L1.17287 1.81837L1.1609 1.75929L0.933511 1.80655L0.730053 0.967631L0.897607 0.932183C1.22074 0.861288 1.30452 0.955815 1.40027 1.27484C1.49601 1.6175 1.55585 1.73566 1.85505 1.66476L2.04654 1.6175L2.03457 1.55842L1.96277 1.57024C1.80718 1.60568 1.75931 1.48753 1.6875 1.22758ZM0.718085 0.896736L0.538564 0.152341L0.670213 0.116893C0.933511 0.0578142 1.05319 0.175972 1.10106 0.412288C1.14894 0.613157 1.125 0.802209 0.897607 0.849473L0.718085 0.896736Z" transform="translate(69.3193 14.8457) scale(4)" fill="#0065B3"/>
<path d="M0.194916 0.43464C0.17098 0.233771 0.326565 0.115613 0.506087 0.0919814C0.745448 0.056534 0.913001 0.174692 1.00875 0.458271L1.08055 0.446455L1.00875 0.056534C0.865129 0.00927079 0.67364 -0.0143608 0.518055 0.00927079C0.218852 0.0447182 -0.0324774 0.269218 0.00342687 0.588245C0.0991716 1.21448 1.06859 0.907271 1.12843 1.39172C1.16433 1.63985 0.972842 1.78164 0.757416 1.80527C0.458214 1.84072 0.206884 1.61622 0.147044 1.32082L0.0752354 1.33264L0.17098 1.84072C0.374438 1.91161 0.541991 1.91161 0.73348 1.88798C1.05662 1.84072 1.35582 1.6044 1.30795 1.24993C1.2122 0.576429 0.254757 0.88364 0.194916 0.43464Z" transform="translate(77.7314 13.4805) scale(4)" fill="#0065B3"/>
<path d="M1.00532 0.217386C1.13697 0.0519647 1.32846 0.0755963 1.47207 0.181938C1.67553 0.323728 1.71144 0.524597 1.57979 0.79636L1.63963 0.831807L1.86702 0.500965C1.79521 0.370991 1.67553 0.217386 1.54388 0.134675C1.30452 -0.0425617 0.969415 -0.0661933 0.765957 0.193754C0.394947 0.701834 1.31649 1.15083 1.01729 1.55257C0.87367 1.75344 0.634308 1.71799 0.454787 1.58802C0.215426 1.41078 0.191489 1.07994 0.359043 0.831807L0.299202 0.784544L0 1.20991C0.107713 1.39897 0.227394 1.51712 0.382979 1.63528C0.646277 1.82433 1.02926 1.84797 1.23271 1.56439C1.6516 1.00904 0.730053 0.583676 1.00532 0.217386Z" transform="translate(129.255 27.0156) scale(4)" fill="#0065B3"/>
<path d="M0.418883 0.059079L0.658245 0.118158L0.25133 1.77237L0.0119681 1.72511L0 1.78419L0.765957 1.96142L0.777925 1.90234L0.538564 1.84326L0.945479 0.189053L1.17287 0.236316L1.19681 0.177237L0.430851 0L0.418883 0.059079Z" transform="translate(104.458 14.6514) scale(4)" fill="#0065B3"/>
<path d="M0 0.578974H0.0718085C0.0837766 0.342658 0.191489 0.0827106 0.454787 0.0827106H0.682181L0.658245 1.77237H0.371011V1.83145L1.24468 1.84326V1.77237H0.957447L0.981383 0.0827106L1.19681 0.0945264C1.46011 0.0945264 1.56782 0.36629 1.56782 0.602606H1.6516V0.0118158L0 0V0.578974Z" transform="translate(87.6064 12.9507) scale(4)" fill="#0065B3"/>
<path d="M0.203457 0.531711L0.263298 0.567158C0.382979 0.354474 0.586436 0.153605 0.825798 0.271763L1.02926 0.36629L0.287234 1.89053L0.0239362 1.76055L0 1.81963L0.777926 2.19774L0.81383 2.13866L0.550532 2.0205L1.30452 0.496264L1.49601 0.59079C1.73537 0.708948 1.71144 0.992527 1.61569 1.21703L1.6875 1.24066L1.93883 0.720764L0.454787 0L0.203457 0.531711Z" transform="translate(118.724 19.1411) scale(4)" fill="#0065B3"/>
<path d="M1.00532 0.2245L1.04122 0.295395C1.26862 0.212684 1.55585 0.200869 1.6516 0.449L1.74734 0.649869L0.167553 1.31155L0.0598404 1.05161L0 1.07524L0.335106 1.85508L0.394947 1.83145L0.287234 1.5715L1.85505 0.921632L1.9508 1.1225C2.04654 1.35882 1.84309 1.55969 1.62766 1.65421L1.6516 1.72511L2.20213 1.50061L1.55585 0L1.00532 0.2245Z" transform="translate(153.144 56.1489) scale(4)" fill="#0065B3"/>
<path d="M1.0891 0.129974V0.189053L1.35239 0.2245L0.87367 0.921632L0.5625 0.129974L0.825798 0.153605L0.837766 0.0945264L0.0119681 0L0 0.0708948L0.215426 0.0945264L0.598404 0.992527L0.50266 1.84326L0.263298 1.80782L0.25133 1.87871L1.02926 1.96142V1.90234L0.801862 1.8669L0.897606 1.01616L1.43617 0.2245L1.62766 0.248132L1.63963 0.189053L1.0891 0.129974Z" transform="translate(95.5532 13.0913) scale(4)" fill="#0065B3"/>
<path d="M0.215426 1.347L1.50798 0.236316L1.35239 0.0472632L1.40027 0L1.92686 0.602606L1.87899 0.649869L1.71144 0.460816L0.418883 1.58332L0.586436 1.76055L0.526596 1.80782L0 1.21703L0.0598404 1.16976L0.215426 1.347ZM2.10638 0.803474L2.42952 1.16976L2.38165 1.21703L2.26197 1.08705L1.40027 1.07524L1.11303 2.36316L1.19681 2.45769L1.14894 2.50495L0.694149 1.99687L0.742021 1.94961L0.849734 2.06776L1.11303 1.00434H2.20213L2.05851 0.850737L2.10638 0.803474Z" transform="translate(139.835 36.2036) scale(4)" fill="#0065B3"/>
<path d="M0 0.14179L0.239362 0.118158L0.418883 1.796L0.167553 1.81963L0.179521 1.89053L0.957447 1.80782L0.945479 1.74874L0.706117 1.77237L0.538564 0.0827106L0.777926 0.059079L0.765958 0L0 0.0827106V0.14179Z" transform="translate(95.4092 156.488) scale(4)" fill="#0065B3"/>
<path d="M0.0478723 0.626237L0.203457 0.437184L1.49601 1.54787L1.34043 1.72511L1.3883 1.77237L1.90293 1.18158L1.84309 1.14613L1.6875 1.32337L0.394947 0.2245L0.550532 0.0472632L0.50266 0L0 0.578974L0.0478723 0.626237Z" transform="translate(141.367 132.101) scale(4)" fill="#0065B3"/>
<path d="M0.0598404 0.756211L0.131649 0.531711L1.78324 0.945264L1.7234 1.18158L1.78324 1.1934L1.97473 0.460816L1.91489 0.437185L1.85505 0.673501L0.203457 0.248132L0.263298 0.0118158L0.203457 0L0 0.744395L0.0598404 0.756211Z" transform="translate(156.495 104.31) scale(4)" fill="#0065B3"/>
<path d="M1.19681 0.2245L1.47207 0.14179L1.83112 1.32337H1.81915L0.574468 0.342658L0 0.508079L0.0239362 0.567158L0.25133 0.508079L0.742021 2.12684L0.514628 2.18592L0.538564 2.25682L1.10106 2.07958L1.0891 2.0205L0.81383 2.10321L0.347074 0.543527L2.01064 1.84326L2.05851 1.81963L1.54388 0.118158L1.77128 0.059079L1.74734 0L1.18484 0.165421L1.19681 0.2245Z" transform="translate(106.325 153.038) scale(4)" fill="#0065B3"/>
<path d="M1.9867 0.744395L2.16622 0.886185L1.6516 1.50061L1.04122 0.992527L1.54388 0.389921L1.7234 0.531711L1.75931 0.484448L1.17287 0L1.13697 0.0472632L1.31649 0.200869L0.227394 1.51242L0.0359043 1.35882L0 1.40608L0.586436 1.89053L0.634308 1.84326L0.454787 1.68966L0.993351 1.03979L1.61569 1.54787L1.06516 2.19774L0.897606 2.04413L0.849734 2.10321L1.44814 2.57584L1.48404 2.52858L1.29255 2.37498L2.38165 1.07524L2.57314 1.22884L2.62101 1.18158L2.02261 0.697132L1.9867 0.744395Z" transform="translate(38.3936 139.001) scale(4)" fill="#0065B3"/>
<path d="M1.97473 1.07524L2.02261 1.29974L1.24468 1.47697L1.07713 0.697132L1.85505 0.531711L1.90293 0.756211L1.96277 0.744395L1.79521 0L1.73537 0.0118158L1.78324 0.248132L0.119681 0.614422L0.0598404 0.378106L0 0.389921L0.167553 1.13432L0.227394 1.1225L0.179521 0.898001L1.00532 0.708948L1.18484 1.48879L0.359043 1.66603L0.299202 1.44153L0.239362 1.45334L0.406915 2.19774L0.466755 2.18592L0.418883 1.94961L2.09441 1.58332L2.14229 1.81963L2.20213 1.80782L2.03457 1.06342L1.97473 1.07524Z" transform="translate(14.5059 99.9146) scale(4)" fill="#0065B3"/>
<path d="M1.01729 0.0118158L0.969415 0L0.215426 1.73692L0 1.71329V1.77237L0.5625 1.81963L0.574468 1.76055L0.299202 1.73692L0.538564 1.18158L1.01729 1.22884L1.14894 1.80782L0.87367 1.78419V1.84326L1.69947 1.91416V1.85508L1.47207 1.83145L1.01729 0.0118158ZM0.574468 1.11068L0.849734 0.484448L1.00532 1.14613L0.574468 1.11068Z" transform="translate(80.3296 156.678) scale(4)" fill="#0065B3"/>
<path d="M1.75931 0.0354474L1.71144 0L0.215426 1.16976L0.0359043 1.05161L0 1.09887L0.478723 1.4179L0.514628 1.35882L0.287234 1.21703L0.765957 0.838922L1.1609 1.09887L0.993351 1.66603L0.765957 1.52424L0.730053 1.58332L1.4242 2.03232L1.46011 1.97324L1.25665 1.84326L1.75931 0.0354474ZM0.825798 0.791658L1.37633 0.36629L1.18484 1.01616L0.825798 0.791658Z" transform="translate(45.144 145.665) scale(4)" fill="#0065B3"/>
<path d="M0.0478723 0L0 0.0236316L0.371011 1.8669L0.179521 1.97324L0.203457 2.03232L0.706117 1.74874L0.682181 1.68966L0.442819 1.81963L0.323138 1.24066L0.730053 1.00434L1.17287 1.4179L0.945479 1.54787L0.969415 1.59513L1.69947 1.1934L1.66356 1.13432L1.46011 1.25247L0.0478723 0ZM0.299202 1.15795L0.167553 0.484448H0.179521L0.670213 0.945264L0.299202 1.15795Z" transform="translate(124.037 147.981) scale(4)" fill="#0065B3"/>
<path d="M2.16622 1.06342L2.30984 1.29974L1.24468 1.94961V1.93779L1.87899 0.496264L1.56782 0L1.51995 0.0354474L1.63963 0.236316L0.179521 1.1225L0.0598404 0.921632L0 0.95708L0.31117 1.45334L0.371011 1.4179L0.227394 1.18158L1.62766 0.330842L0.777925 2.25682L0.81383 2.29226L2.34574 1.37063L2.47739 1.5715L2.52527 1.53605L2.2141 1.03979L2.16622 1.06342Z" transform="translate(22.979 121.419) scale(4)" fill="#0065B3"/>
<path d="M1.99867 1.347L1.80718 1.67784L1.0891 1.27611L1.1609 1.14613C1.30452 0.898001 1.3883 0.921632 1.66356 1.08705L1.71144 1.01616L0.945479 0.578974L0.909575 0.649869C1.14894 0.779843 1.23271 0.850738 1.0891 1.11069L1.01729 1.22884L0.323138 0.838922L0.382979 0.73258C0.682181 0.2245 0.765957 0.165421 1.20878 0.330842L1.23271 0.271763L0.742021 0L0 1.26429L0.0598404 1.28792L0.179521 1.08705L1.66356 1.93779L1.54388 2.13866L1.59176 2.17411L2.36968 0.850738L1.84309 0.519895L1.80718 0.578974C2.09441 0.803474 2.20213 1.01616 1.99867 1.347Z" transform="translate(148.212 120.568) scale(4)" fill="#0065B3"/>
<path d="M1.13697 0.197046C1.28059 0.055256 1.47207 0.102519 1.60372 0.232493C1.77128 0.397914 1.78324 0.598783 1.61569 0.846914L1.66356 0.894178L1.93883 0.610598C1.87899 0.456993 1.78324 0.303388 1.67553 0.197046C1.46011 -0.0156388 1.13697 -0.0865336 0.909575 0.137967C0.454787 0.586967 1.29255 1.15413 0.933511 1.5086C0.765957 1.67402 0.538564 1.60313 0.382979 1.46134C0.167553 1.24865 0.203457 0.917809 0.406915 0.693309L0.347074 0.646046L0 1.02415C0.0718085 1.2132 0.167553 1.35499 0.299202 1.48497C0.526596 1.70947 0.897606 1.79218 1.14894 1.54405C1.63963 1.07141 0.81383 0.516072 1.13697 0.197046Z" transform="translate(34.3726 136.039) scale(4)" fill="#0065B3"/>
<path d="M1.79521 0.543527L1.99867 0.649869L1.63963 1.347L0.921542 0.992527L1.28058 0.295395L1.49601 0.389921L1.51995 0.342658L0.837766 0L0.801862 0.0472632L1.02926 0.165421L0.25133 1.66603L0.0359043 1.55969L0 1.61876L0.694149 1.96142L0.718085 1.90234L0.514628 1.796L0.897606 1.05161L1.60372 1.40608L1.22074 2.16229L1.01729 2.05595L0.993351 2.10321L1.67553 2.44587L1.69947 2.39861L1.48404 2.29227L2.26197 0.779843L2.47739 0.886185L2.50133 0.827106L1.81915 0.484448L1.79521 0.543527Z" transform="translate(52.085 147.981) scale(4)" fill="#0065B3"/>
<path d="M1.04122 0.354474L1.25665 0.259948L1.56782 0.992527L0.837766 1.29974L0.514628 0.578974L0.730053 0.484448L0.706117 0.425369L0 0.720764L0.0239362 0.779843L0.25133 0.685316L0.921542 2.245L0.706117 2.33953L0.730053 2.39861L1.43617 2.0914L1.41223 2.04413L1.19681 2.12684L0.861702 1.35882L1.59176 1.03979L1.92686 1.81963L1.71144 1.90234L1.73537 1.96142L2.44149 1.66603L2.41755 1.60695L2.20213 1.70147L1.51995 0.153605L1.74734 0.059079L1.7234 0L1.01729 0.295395L1.04122 0.354474Z" transform="translate(113.792 150.013) scale(4)" fill="#0065B3"/>
<path d="M0.276797 0.886185C0.0853077 0.827106 0.0494034 0.626237 0.109244 0.460816C0.181052 0.236316 0.372542 0.14179 0.671744 0.177237L0.683712 0.118158L0.300733 0C0.19302 0.106342 0.0853077 0.271763 0.0374353 0.413553C-0.0583094 0.697132 0.0254672 1.01616 0.336637 1.1225C0.935042 1.31155 1.09063 0.330842 1.55738 0.484448C1.79674 0.567158 1.83265 0.791658 1.76084 0.992527C1.66509 1.27611 1.35392 1.39426 1.06669 1.32337L1.04275 1.38245L1.54541 1.53605C1.68903 1.38245 1.77281 1.22884 1.83265 1.05161C1.92839 0.756211 1.84462 0.389921 1.50951 0.271763C0.851265 0.059079 0.719616 1.02797 0.276797 0.886185Z" transform="translate(155.1 108.8) scale(4)" fill="#0065B3"/>
<path d="M0.574468 1.68966L0.586436 1.61876C0.359043 1.55969 0.107713 1.42971 0.155585 1.16976L0.191489 0.945264L1.86702 1.24066L1.80718 1.51242L1.87899 1.52424L2.02261 0.685316H1.96277L1.91489 0.95708L0.239362 0.661685L0.275266 0.449C0.323138 0.189053 0.610372 0.14179 0.849734 0.177237L0.861702 0.0945264L0.275266 0L0 1.59513L0.574468 1.68966Z" transform="translate(157.5 97.3623) scale(4)" fill="#0065B3"/>
<path d="M0.634308 1.61876L0.62234 1.54787C0.382979 1.53605 0.119681 1.44153 0.107713 1.18158V0.968895L1.79521 0.933448L1.80718 1.20521H1.86702L1.85505 0.354474H1.78324L1.79521 0.638053L0.0957447 0.6735V0.460816C0.0837766 0.200869 0.359043 0.0945264 0.598404 0.0827106V0L0 0.0118158L0.0359043 1.63058L0.634308 1.61876Z" transform="translate(158.984 83.9868) scale(4)" fill="#0065B3"/>
<path d="M1.04122 0.389921L1.26862 0.2245L2.01064 1.15795C2.20213 1.40608 2.2859 1.58332 1.90293 1.87871C1.56782 2.13866 1.4242 2.05595 1.20878 1.796L0.454787 0.850737L0.658245 0.697132L0.62234 0.649869L0 1.1225L0.0478723 1.16976L0.227394 1.02797L1.00532 2.00869C1.22074 2.26863 1.40027 2.37498 1.89096 1.99687C2.35771 1.63058 2.29787 1.40608 2.08245 1.13432L1.32846 0.177237L1.49601 0.0472632L1.46011 0L1.00532 0.342658L1.04122 0.389921Z" transform="translate(129.687 140.183) scale(4)" fill="#0065B3"/>
<path d="M0.933511 0.460816L1.125 0.259948L1.99867 1.14613L0.430851 0.850738L0 1.26429L0.0478723 1.29974L0.215426 1.14613L1.41223 2.35134L1.24468 2.51677L1.29255 2.56403L1.7234 2.15048L1.67553 2.10321L1.47207 2.29226L0.31117 1.13432L0.323138 1.1225L2.40558 1.52424L2.44149 1.47697L1.18484 0.212684L1.35239 0.0472632L1.30452 0L0.885638 0.413553L0.933511 0.460816Z" transform="translate(135.623 134.984) scale(4)" fill="#0065B3"/>
<path d="M0.131649 0.933448L0.107713 0.697132L1.81915 0.531711L1.84309 0.768027L1.90293 0.756211L1.83112 0H1.75931L1.78324 0.236316L0.0837766 0.413553L0.0598404 0.165421L0 0.177237L0.0718085 0.945264L0.131649 0.933448Z" transform="translate(158.601 79.6387) scale(4)" fill="#0065B3"/>
<path d="M0.718085 0.472632L0.87367 0.259948L1.71144 1.40608L1.69947 1.4179L0.359043 0.968895L0.514628 0.768027L0.454787 0.720764L0 1.347L0.0478723 1.39426L0.179521 1.21703L1.9867 1.78419L2.02261 1.73692L0.933511 0.189053L1.04122 0.0354474L0.993351 0L0.670213 0.437185L0.718085 0.472632Z" transform="translate(143.953 126.004) scale(4)" fill="#0065B3"/>
<path d="M1.84308 0.6735L1.81915 1.06342L0.981383 1.00434L0.993351 0.862553C1.01729 0.567158 1.10106 0.555342 1.4242 0.578974V0.508079L0.550532 0.437184V0.519895C0.825798 0.531711 0.933511 0.567158 0.909574 0.850737V0.992527L0.107713 0.933448L0.119681 0.81529C0.155585 0.236316 0.215426 0.14179 0.670213 0.0945264L0.682181 0.0354474L0.119681 0.0118158L0 1.45334L0.0718085 1.46516L0.0837766 1.22884L1.79521 1.347L1.78324 1.58332L1.84308 1.59513L1.9508 0.0708948L1.32846 0V0.0708948C1.6875 0.14179 1.87899 0.283579 1.84308 0.6735Z" transform="translate(158.648 91.0293) scale(4)" fill="#0065B3"/>
<path d="M0.454787 1.58332L0.287234 1.22884L1.04122 0.874369L1.10106 1.00434C1.23271 1.26429 1.1609 1.32337 0.87367 1.46516L0.909575 1.52424L1.69947 1.15795L1.66356 1.08705C1.41223 1.20521 1.30452 1.24066 1.17287 0.968895L1.11303 0.838922L1.84309 0.508079L1.89096 0.614422C2.14229 1.13432 2.14229 1.24066 1.77128 1.51242L1.79521 1.5715L2.29787 1.31155L1.66356 0L1.60372 0.0236316L1.71144 0.248132L0.167553 0.968895L0.0598404 0.756211L0 0.779843L0.670213 2.16229L1.24468 1.91416L1.22074 1.85508C0.861702 1.96142 0.634309 1.93779 0.454787 1.58332Z" transform="translate(19.6753 115.275) scale(4)" fill="#0065B3"/>
<path d="M1.81915 0.350066C1.43617 0.196461 1.34043 0.290987 1.13697 0.621829V0.610014C1.20878 0.373698 1.20878 0.172829 0.933511 0.0546711C0.586436 -0.0989343 0.430851 0.0901185 0.299202 0.385513L0 1.05901L0.0598404 1.08265L0.155585 0.869961L1.7234 1.55528L1.62766 1.76796L1.6875 1.79159L1.9867 1.10628L1.92686 1.07083L1.84309 1.28351L1.05319 0.940856L1.11303 0.799066C1.24468 0.503671 1.36436 0.491856 1.6875 0.610014C2.02261 0.728172 2.14229 0.751803 2.27394 0.468224L2.34574 0.302803L2.2859 0.279171L2.26197 0.33825C2.20213 0.48004 2.07048 0.444592 1.81915 0.350066ZM0.969415 0.905409L0.275266 0.598198L0.323138 0.48004C0.430851 0.243724 0.598404 0.220092 0.81383 0.314619C1.00532 0.397329 1.13697 0.539119 1.04122 0.751803L0.969415 0.905409Z" transform="translate(151.899 115.009) scale(4)" fill="#0065B3"/>
<path d="M1.47207 1.74874C1.59176 1.35882 1.50798 1.27611 1.1609 1.09887C1.40027 1.14613 1.61569 1.13432 1.71144 0.862553C1.84309 0.508079 1.6516 0.36629 1.34043 0.259948L0.634309 0L0.610372 0.059079L0.837766 0.14179L0.25133 1.72511L0.0239362 1.65421L0 1.71329L0.718085 1.97324L0.742021 1.91416L0.526596 1.83145L0.825798 1.02797L0.981383 1.08705C1.28059 1.1934 1.30452 1.31155 1.20878 1.63058C1.10106 1.97324 1.0891 2.10321 1.37633 2.20955L1.55585 2.26863L1.57979 2.20955L1.51995 2.18592C1.36436 2.13866 1.40027 1.99687 1.47207 1.74874ZM0.849734 0.95708L1.11303 0.248132L1.24468 0.283579C1.48404 0.378105 1.51995 0.543527 1.43617 0.756211C1.36436 0.95708 1.23271 1.08705 1.01729 1.01616L0.849734 0.95708Z" transform="translate(60.606 151.715) scale(4)" fill="#0065B3"/>
<path d="M1.48363 0.192433C1.68709 0.168801 1.7948 0.322407 1.81874 0.499644C1.85464 0.73596 1.73496 0.901381 1.44773 0.995907L1.4597 1.0668L1.85464 0.995907C1.90252 0.854118 1.92645 0.665065 1.90252 0.523275C1.86661 0.216064 1.65119 -0.0320673 1.32805 0.00338014C0.693739 0.0860907 0.992941 1.04317 0.50225 1.10225C0.262888 1.12588 0.119271 0.936828 0.0953347 0.724144C0.0594305 0.440565 0.298792 0.192433 0.586026 0.133354L0.574058 0.0742749L0.0594305 0.14517C-0.000409961 0.346038 -0.012378 0.523275 0.0115581 0.700512C0.0474624 1.01954 0.298792 1.31493 0.645867 1.26767C1.32805 1.18496 1.01688 0.251512 1.48363 0.192433Z" transform="translate(13.8843 94.9854) scale(4)" fill="#0065B3"/>
<path d="M0.0119681 0.212684L0.239362 0.165421L0.598404 1.81963L0.359043 1.8669L0.371011 1.92597L1.125 1.77237L1.11303 1.71329L0.885638 1.76055L0.526596 0.106342L0.765958 0.059079L0.753989 0L0 0.153605L0.0119681 0.212684Z" transform="translate(102.59 155.26) scale(4)" fill="#0065B3"/>
<path d="M0.478723 0.0708948L0.706117 0.129974L0.25133 1.76055L0.0239362 1.70148L0 1.76055L0.753989 1.96142L0.765957 1.90234L0.538564 1.83145L0.993351 0.200869L1.22074 0.271763L1.24468 0.212684L0.490692 0L0.478723 0.0708948Z" transform="translate(68.2661 154.172) scale(4)" fill="#0065B3"/>
<path d="M0.753989 0.354474L0.801862 0.413553C0.993351 0.271763 1.26862 0.189053 1.43617 0.401737L1.56782 0.567158L0.215426 1.58332L0.0478723 1.37063L0 1.40608L0.514628 2.07958L0.574468 2.04413L0.394947 1.81963L1.74734 0.803474L1.87899 0.968896C2.03457 1.18158 1.89096 1.4179 1.69947 1.5715L1.74734 1.63058L2.2141 1.27611L1.22074 0L0.753989 0.354474Z" transform="translate(28.2446 127.706) scale(4)" fill="#0065B3"/>
<path d="M1.34043 0V0.0708948C1.57979 0.106342 1.83112 0.2245 1.81915 0.484448L1.79521 0.697132L0.107713 0.567158L0.131649 0.283579H0.0718085L0 1.13432H0.0598404L0.0837766 0.850737L1.77128 0.992527L1.75931 1.20521C1.73537 1.46516 1.46011 1.54787 1.22074 1.53605L1.20878 1.60695L1.80718 1.65421L1.92686 0.0472632L1.34043 0Z" transform="translate(13.5 80.1113) scale(4)" fill="#0065B3"/>
<path d="M0.155585 0.81529L1.75931 0.248132L1.67553 0.0236316L1.74734 0L2.01064 0.744395L1.93883 0.768027L1.86702 0.543527L0.25133 1.09887L0.335106 1.32337L0.275266 1.347L0 0.602606L0.0718085 0.578974L0.155585 0.81529ZM2.09441 0.992527L2.26197 1.44153L2.19016 1.46516L2.13032 1.31155L1.35239 0.992527L0.598404 2.06776L0.646276 2.18592L0.574468 2.20955L0.347074 1.58332L0.418883 1.55969L0.466755 1.70147L1.11303 0.81529L2.10638 1.21703L2.03457 1.01616L2.09441 0.992527Z" transform="translate(16.707 108.28) scale(4)" fill="#0065B3"/>
<path d="M1.85536 0.780139C1.8434 0.331139 1.48435 -0.0115192 0.909885 0.000296554C0.323448 0.0121124 -0.0116581 0.390218 0.000310012 0.827402C0.0122781 1.2764 0.371321 1.61906 0.957757 1.60725C1.53223 1.59543 1.86733 1.21732 1.85536 0.780139ZM0.419193 1.24096C0.287544 1.21732 0.203767 1.17006 0.155895 1.08735C0.108023 0.992824 0.0840866 0.910113 0.0840866 0.827402C0.0721185 0.685613 0.108023 0.579271 0.179831 0.508376C0.25164 0.437481 0.347385 0.390218 0.455097 0.378402C0.56281 0.35477 0.718395 0.342955 0.897917 0.331139C1.17318 0.331139 1.36467 0.342955 1.47238 0.366586C1.5801 0.390218 1.66387 0.437481 1.71175 0.520192C1.74765 0.602902 1.78356 0.685613 1.78356 0.780139C1.78356 0.886481 1.75962 0.969192 1.72371 1.04009C1.68781 1.11098 1.616 1.17006 1.53223 1.20551C1.43648 1.24096 1.26893 1.26459 1.0176 1.26459C0.7543 1.2764 0.550842 1.26459 0.419193 1.24096Z" transform="translate(13.4985 87.5771) scale(4)" fill="#0065B3"/>
<path d="M0.239362 1.76055L0.550532 0.118158L0.31117 0.0708948L0.323138 0L1.10106 0.14179C1.28059 0.177237 1.4242 0.2245 1.54388 0.307211C1.66356 0.378106 1.74734 0.496264 1.80718 0.6735C1.86702 0.838922 1.87899 1.01616 1.84309 1.1934C1.80718 1.38245 1.73537 1.54787 1.61569 1.67784C1.49601 1.80782 1.36436 1.89053 1.23271 1.92597C1.10106 1.94961 0.945479 1.94961 0.765957 1.92597L0 1.78419L0.0119681 1.71329L0.239362 1.76055ZM0.849734 0.165421L0.550532 1.80782L0.765957 1.85508C0.885638 1.8669 0.981383 1.87871 1.06516 1.8669C1.13697 1.85508 1.20878 1.81963 1.26862 1.76055C1.34043 1.68966 1.3883 1.60695 1.4242 1.48879C1.46011 1.38245 1.49601 1.22884 1.53191 1.05161C1.56782 0.827106 1.56782 0.661685 1.54388 0.543527C1.50798 0.425369 1.44814 0.342658 1.37633 0.307211C1.30452 0.259948 1.20878 0.236316 1.07713 0.212684L0.849734 0.165421Z" transform="translate(73.0532 155.307) scale(4)" fill="#0065B3"/>
<path d="M1.40027 0.578974H1.31649C1.31649 0.578974 1.29255 0.460816 1.25665 0.389921C1.14894 0.165421 1.00532 0.0708948 0.789894 0.0708948C0.646277 0.0708948 0.550532 0.106342 0.490692 0.177237C0.418883 0.236316 0.382979 0.319027 0.371011 0.425369C0.359043 0.519895 0.359043 0.661685 0.359043 0.850738C0.371011 1.18158 0.382979 1.40608 0.406915 1.51242C0.430851 1.61876 0.478723 1.70148 0.538564 1.74874C0.610372 1.796 0.694149 1.83145 0.789894 1.81963C0.861702 1.81963 0.933511 1.80782 0.993351 1.77237C1.04122 1.73692 1.07713 1.68966 1.10106 1.63058C1.11303 1.55969 1.11303 1.46516 1.11303 1.33519V1.24066H0.861702V1.18158L1.67553 1.15795V1.22884H1.47207C1.47207 1.46516 1.40027 1.63058 1.25665 1.73692C1.125 1.84326 0.969415 1.89053 0.81383 1.89053C0.586436 1.90234 0.394947 1.80782 0.239362 1.61876C0.0837766 1.42971 0 1.21703 0 0.968895C0 0.708948 0.0718085 0.484448 0.215426 0.295395C0.371011 0.106342 0.5625 0.0118158 0.789894 0C0.981383 0 1.13697 0.0827106 1.23271 0.165421C1.28059 0.200869 1.31649 0.118158 1.31649 0.118158H1.3883L1.40027 0.578974Z" transform="translate(88.0376 156.819) scale(4)" fill="#0065B3"/>
<path d="M8.10059 2.73047L8.20312 4.9043H7.94336C7.89323 4.52148 7.82487 4.24805 7.73828 4.08398C7.59701 3.81966 7.40788 3.62598 7.1709 3.50293C6.93848 3.37533 6.63086 3.31152 6.24805 3.31152H4.94238V10.3936C4.94238 10.9632 5.00391 11.3187 5.12695 11.46C5.30013 11.6514 5.56673 11.7471 5.92676 11.7471H6.24805V12H2.31738V11.7471H2.64551C3.03743 11.7471 3.31543 11.6286 3.47949 11.3916C3.57975 11.2458 3.62988 10.9131 3.62988 10.3936V3.31152H2.51562C2.08268 3.31152 1.77507 3.34342 1.59277 3.40723C1.35579 3.49382 1.15299 3.66016 0.984375 3.90625C0.815755 4.15234 0.715495 4.48503 0.683594 4.9043H0.423828L0.533203 2.73047H8.10059ZM13.4189 2.51855C14.6221 2.51855 15.6634 2.97656 16.543 3.89258C17.4271 4.80404 17.8691 5.94336 17.8691 7.31055C17.8691 8.71875 17.4248 9.8877 16.5361 10.8174C15.6475 11.7471 14.5719 12.2119 13.3096 12.2119C12.0335 12.2119 10.9603 11.7585 10.0898 10.8516C9.22396 9.94466 8.79102 8.77116 8.79102 7.33105C8.79102 5.85905 9.29232 4.6582 10.2949 3.72852C11.1654 2.92188 12.2067 2.51855 13.4189 2.51855ZM13.2891 3.01758C12.4596 3.01758 11.7943 3.3252 11.293 3.94043C10.6686 4.70605 10.3564 5.82715 10.3564 7.30371C10.3564 8.81673 10.68 9.98112 11.3271 10.7969C11.8239 11.4167 12.4801 11.7266 13.2959 11.7266C14.1663 11.7266 14.8841 11.387 15.4492 10.708C16.0189 10.029 16.3037 8.95801 16.3037 7.49512C16.3037 5.90918 15.9915 4.72656 15.3672 3.94727C14.8659 3.32747 14.1732 3.01758 13.2891 3.01758ZM24.835 2.51855V5.72461H24.582C24.5 5.10938 24.3519 4.61947 24.1377 4.25488C23.9281 3.8903 23.6273 3.60091 23.2354 3.38672C22.8434 3.17253 22.4378 3.06543 22.0186 3.06543C21.5446 3.06543 21.1527 3.21126 20.8428 3.50293C20.5329 3.79004 20.3779 4.11816 20.3779 4.4873C20.3779 4.76986 20.4759 5.02734 20.6719 5.25977C20.9544 5.60156 21.6266 6.05729 22.6885 6.62695C23.5544 7.0918 24.1445 7.44954 24.459 7.7002C24.778 7.94629 25.0218 8.23796 25.1904 8.5752C25.3636 8.91243 25.4502 9.26562 25.4502 9.63477C25.4502 10.3366 25.1768 10.9427 24.6299 11.4531C24.0876 11.959 23.388 12.2119 22.5312 12.2119C22.2624 12.2119 22.0094 12.1914 21.7725 12.1504C21.6312 12.1276 21.3372 12.0456 20.8906 11.9043C20.4486 11.7585 20.1683 11.6855 20.0498 11.6855C19.9359 11.6855 19.8447 11.7197 19.7764 11.7881C19.7126 11.8564 19.6647 11.9977 19.6328 12.2119H19.3799V9.0332H19.6328C19.7513 9.69857 19.9108 10.1976 20.1113 10.5303C20.3118 10.8584 20.6172 11.1318 21.0273 11.3506C21.4421 11.5693 21.8955 11.6787 22.3877 11.6787C22.9574 11.6787 23.4062 11.5283 23.7344 11.2275C24.0671 10.9268 24.2334 10.5713 24.2334 10.1611C24.2334 9.93327 24.1696 9.70312 24.042 9.4707C23.9189 9.23828 23.7253 9.02181 23.4609 8.82129C23.2832 8.68457 22.7979 8.39518 22.0049 7.95312C21.2119 7.50651 20.6468 7.15104 20.3096 6.88672C19.9769 6.6224 19.724 6.33073 19.5508 6.01172C19.3776 5.69271 19.291 5.3418 19.291 4.95898C19.291 4.29362 19.5462 3.72168 20.0566 3.24316C20.5671 2.76009 21.2165 2.51855 22.0049 2.51855C22.4971 2.51855 23.0189 2.63932 23.5703 2.88086C23.8255 2.99479 24.0055 3.05176 24.1104 3.05176C24.2288 3.05176 24.3245 3.01758 24.3975 2.94922C24.4749 2.8763 24.5365 2.73275 24.582 2.51855H24.835ZM29.0869 7.03027H33.3936V4.37793C33.3936 3.90397 33.3639 3.5918 33.3047 3.44141C33.2591 3.32747 33.1634 3.22949 33.0176 3.14746C32.8216 3.03809 32.6143 2.9834 32.3955 2.9834H32.0674V2.73047H36.0322V2.9834H35.7041C35.4854 2.9834 35.278 3.03581 35.082 3.14062C34.9362 3.21354 34.8359 3.3252 34.7812 3.47559C34.7311 3.62142 34.7061 3.9222 34.7061 4.37793V10.3594C34.7061 10.8288 34.7357 11.1387 34.7949 11.2891C34.8405 11.403 34.9339 11.501 35.0752 11.583C35.2757 11.6924 35.4854 11.7471 35.7041 11.7471H36.0322V12H32.0674V11.7471H32.3955C32.7738 11.7471 33.0495 11.6354 33.2227 11.4121C33.3366 11.2663 33.3936 10.9154 33.3936 10.3594V7.53613H29.0869V10.3594C29.0869 10.8288 29.1165 11.1387 29.1758 11.2891C29.2214 11.403 29.3171 11.501 29.4629 11.583C29.6589 11.6924 29.8662 11.7471 30.085 11.7471H30.4199V12H26.4482V11.7471H26.7764C27.1592 11.7471 27.4372 11.6354 27.6104 11.4121C27.7197 11.2663 27.7744 10.9154 27.7744 10.3594V4.37793C27.7744 3.90397 27.7448 3.5918 27.6855 3.44141C27.64 3.32747 27.5465 3.22949 27.4053 3.14746C27.2048 3.03809 26.9951 2.9834 26.7764 2.9834H26.4482V2.73047H30.4199V2.9834H30.085C29.8662 2.9834 29.6589 3.03581 29.4629 3.14062C29.3216 3.21354 29.2236 3.3252 29.1689 3.47559C29.1143 3.62142 29.0869 3.9222 29.0869 4.37793V7.03027ZM40.5098 6.85938L43.9277 10.2568C44.4883 10.8174 44.9668 11.2002 45.3633 11.4053C45.7598 11.6058 46.1562 11.7197 46.5527 11.7471V12H42.1436V11.7471C42.4079 11.7471 42.597 11.7038 42.7109 11.6172C42.8294 11.526 42.8887 11.4258 42.8887 11.3164C42.8887 11.207 42.8659 11.109 42.8203 11.0225C42.7793 10.9359 42.638 10.7741 42.3965 10.5371L39.1973 7.37207V10.3594C39.1973 10.8288 39.2269 11.1387 39.2861 11.2891C39.3317 11.403 39.4274 11.501 39.5732 11.583C39.7692 11.6924 39.9766 11.7471 40.1953 11.7471H40.5098V12H36.5586V11.7471H36.8867C37.2695 11.7471 37.5475 11.6354 37.7207 11.4121C37.8301 11.2663 37.8848 10.9154 37.8848 10.3594V4.37109C37.8848 3.90169 37.8551 3.58952 37.7959 3.43457C37.7503 3.3252 37.6569 3.22949 37.5156 3.14746C37.3151 3.03809 37.1055 2.9834 36.8867 2.9834H36.5586V2.73047H40.5098V2.9834H40.1953C39.9811 2.9834 39.7738 3.03581 39.5732 3.14062C39.432 3.21354 39.334 3.32292 39.2793 3.46875C39.2246 3.61458 39.1973 3.91536 39.1973 4.37109V7.20801C39.2884 7.12142 39.6006 6.83203 40.1338 6.33984C41.4873 5.10026 42.3053 4.27311 42.5879 3.8584C42.7109 3.67611 42.7725 3.5166 42.7725 3.37988C42.7725 3.27507 42.7246 3.18392 42.6289 3.10645C42.5332 3.02441 42.3714 2.9834 42.1436 2.9834H41.9316V2.73047H45.3359V2.9834C45.1354 2.98796 44.9531 3.0153 44.7891 3.06543C44.625 3.11556 44.4245 3.21354 44.1875 3.35938C43.9505 3.50065 43.6589 3.73079 43.3125 4.0498C43.2122 4.14095 42.7497 4.60807 41.9248 5.45117L40.5098 6.85938ZM49.3691 3.23633V6.90039H51.4062C51.9349 6.90039 52.2881 6.82064 52.4658 6.66113C52.7028 6.4515 52.835 6.08236 52.8623 5.55371H53.1152V8.78027H52.8623C52.7985 8.3291 52.7347 8.03971 52.6709 7.91211C52.5889 7.7526 52.4544 7.62728 52.2676 7.53613C52.0807 7.44499 51.7936 7.39941 51.4062 7.39941H49.3691V10.4551C49.3691 10.8652 49.3874 11.1159 49.4238 11.207C49.4603 11.2936 49.5241 11.3643 49.6152 11.4189C49.7064 11.4691 49.8796 11.4941 50.1348 11.4941H51.707C52.2311 11.4941 52.6117 11.4577 52.8486 11.3848C53.0856 11.3118 53.3135 11.1683 53.5322 10.9541C53.8148 10.6715 54.1042 10.2454 54.4004 9.67578H54.6738L53.874 12H46.7305V11.7471H47.0586C47.2773 11.7471 47.4847 11.6947 47.6807 11.5898C47.8265 11.5169 47.9245 11.4076 47.9746 11.2617C48.0293 11.1159 48.0566 10.8174 48.0566 10.3662V4.34375C48.0566 3.75586 47.9974 3.39355 47.8789 3.25684C47.7148 3.07454 47.4414 2.9834 47.0586 2.9834H46.7305V2.73047H53.874L53.9766 4.76074H53.71C53.6143 4.27311 53.5072 3.93815 53.3887 3.75586C53.2747 3.57357 53.1038 3.43457 52.876 3.33887C52.6937 3.27051 52.3724 3.23633 51.9121 3.23633H49.3691ZM54.8174 2.73047H57.333L63 9.68262V4.33691C63 3.76725 62.9362 3.41178 62.8086 3.27051C62.64 3.0791 62.3734 2.9834 62.0088 2.9834H61.6875V2.73047H64.9141V2.9834H64.5859C64.194 2.9834 63.916 3.10189 63.752 3.33887C63.6517 3.4847 63.6016 3.81738 63.6016 4.33691V12.1504H63.3555L57.2441 4.68555V10.3936C57.2441 10.9632 57.3057 11.3187 57.4287 11.46C57.6019 11.6514 57.8685 11.7471 58.2285 11.7471H58.5566V12H55.3301V11.7471H55.6514C56.0479 11.7471 56.3281 11.6286 56.4922 11.3916C56.5924 11.2458 56.6426 10.9131 56.6426 10.3936V3.94727C56.3737 3.63281 56.1686 3.42546 56.0273 3.3252C55.8906 3.22493 55.6878 3.13151 55.4189 3.04492C55.2868 3.00391 55.0863 2.9834 54.8174 2.9834V2.73047ZM73.2197 2.73047L73.3223 4.9043H73.0625C73.0124 4.52148 72.944 4.24805 72.8574 4.08398C72.7161 3.81966 72.527 3.62598 72.29 3.50293C72.0576 3.37533 71.75 3.31152 71.3672 3.31152H70.0615V10.3936C70.0615 10.9632 70.123 11.3187 70.2461 11.46C70.4193 11.6514 70.6859 11.7471 71.0459 11.7471H71.3672V12H67.4365V11.7471H67.7646C68.1566 11.7471 68.4346 11.6286 68.5986 11.3916C68.6989 11.2458 68.749 10.9131 68.749 10.3936V3.31152H67.6348C67.2018 3.31152 66.8942 3.34342 66.7119 3.40723C66.4749 3.49382 66.2721 3.66016 66.1035 3.90625C65.9349 4.15234 65.8346 4.48503 65.8027 4.9043H65.543L65.6523 2.73047H73.2197ZM83.3369 2.51855V5.72461H83.084C83.002 5.10938 82.8538 4.61947 82.6396 4.25488C82.43 3.8903 82.1292 3.60091 81.7373 3.38672C81.3454 3.17253 80.9398 3.06543 80.5205 3.06543C80.0465 3.06543 79.6546 3.21126 79.3447 3.50293C79.0348 3.79004 78.8799 4.11816 78.8799 4.4873C78.8799 4.76986 78.9779 5.02734 79.1738 5.25977C79.4564 5.60156 80.1286 6.05729 81.1904 6.62695C82.0563 7.0918 82.6465 7.44954 82.9609 7.7002C83.2799 7.94629 83.5238 8.23796 83.6924 8.5752C83.8656 8.91243 83.9521 9.26562 83.9521 9.63477C83.9521 10.3366 83.6787 10.9427 83.1318 11.4531C82.5895 11.959 81.89 12.2119 81.0332 12.2119C80.7643 12.2119 80.5114 12.1914 80.2744 12.1504C80.1331 12.1276 79.8392 12.0456 79.3926 11.9043C78.9505 11.7585 78.6702 11.6855 78.5518 11.6855C78.4378 11.6855 78.3467 11.7197 78.2783 11.7881C78.2145 11.8564 78.1667 11.9977 78.1348 12.2119H77.8818V9.0332H78.1348C78.2533 9.69857 78.4128 10.1976 78.6133 10.5303C78.8138 10.8584 79.1191 11.1318 79.5293 11.3506C79.944 11.5693 80.3975 11.6787 80.8896 11.6787C81.4593 11.6787 81.9082 11.5283 82.2363 11.2275C82.569 10.9268 82.7354 10.5713 82.7354 10.1611C82.7354 9.93327 82.6715 9.70312 82.5439 9.4707C82.4209 9.23828 82.2272 9.02181 81.9629 8.82129C81.7852 8.68457 81.2998 8.39518 80.5068 7.95312C79.7139 7.50651 79.1488 7.15104 78.8115 6.88672C78.4788 6.6224 78.2259 6.33073 78.0527 6.01172C77.8796 5.69271 77.793 5.3418 77.793 4.95898C77.793 4.29362 78.0482 3.72168 78.5586 3.24316C79.069 2.76009 79.7184 2.51855 80.5068 2.51855C80.999 2.51855 81.5208 2.63932 82.0723 2.88086C82.3275 2.99479 82.5075 3.05176 82.6123 3.05176C82.7308 3.05176 82.8265 3.01758 82.8994 2.94922C82.9769 2.8763 83.0384 2.73275 83.084 2.51855H83.3369ZM87.5889 7.03027H91.8955V4.37793C91.8955 3.90397 91.8659 3.5918 91.8066 3.44141C91.7611 3.32747 91.6654 3.22949 91.5195 3.14746C91.3236 3.03809 91.1162 2.9834 90.8975 2.9834H90.5693V2.73047H94.5342V2.9834H94.2061C93.9873 2.9834 93.7799 3.03581 93.584 3.14062C93.4382 3.21354 93.3379 3.3252 93.2832 3.47559C93.2331 3.62142 93.208 3.9222 93.208 4.37793V10.3594C93.208 10.8288 93.2376 11.1387 93.2969 11.2891C93.3424 11.403 93.4359 11.501 93.5771 11.583C93.7777 11.6924 93.9873 11.7471 94.2061 11.7471H94.5342V12H90.5693V11.7471H90.8975C91.2757 11.7471 91.5514 11.6354 91.7246 11.4121C91.8385 11.2663 91.8955 10.9154 91.8955 10.3594V7.53613H87.5889V10.3594C87.5889 10.8288 87.6185 11.1387 87.6777 11.2891C87.7233 11.403 87.819 11.501 87.9648 11.583C88.1608 11.6924 88.3682 11.7471 88.5869 11.7471H88.9219V12H84.9502V11.7471H85.2783C85.6611 11.7471 85.9391 11.6354 86.1123 11.4121C86.2217 11.2663 86.2764 10.9154 86.2764 10.3594V4.37793C86.2764 3.90397 86.2467 3.5918 86.1875 3.44141C86.1419 3.32747 86.0485 3.22949 85.9072 3.14746C85.7067 3.03809 85.4971 2.9834 85.2783 2.9834H84.9502V2.73047H88.9219V2.9834H88.5869C88.3682 2.9834 88.1608 3.03581 87.9648 3.14062C87.8236 3.21354 87.7256 3.3252 87.6709 3.47559C87.6162 3.62142 87.5889 3.9222 87.5889 4.37793V7.03027ZM101.233 8.89648H97.6445L97.0156 10.3594C96.8607 10.7194 96.7832 10.9883 96.7832 11.166C96.7832 11.3073 96.8493 11.4326 96.9814 11.542C97.1182 11.6468 97.4098 11.7152 97.8564 11.7471V12H94.9375V11.7471C95.3249 11.6787 95.5755 11.5898 95.6895 11.4805C95.9219 11.2617 96.1794 10.8174 96.4619 10.1475L99.7227 2.51855H99.9619L103.188 10.2295C103.448 10.8493 103.683 11.2526 103.893 11.4395C104.107 11.6217 104.403 11.7243 104.781 11.7471V12H101.124V11.7471C101.493 11.7288 101.742 11.6673 101.869 11.5625C102.001 11.4577 102.067 11.3301 102.067 11.1797C102.067 10.9792 101.976 10.6624 101.794 10.2295L101.233 8.89648ZM101.042 8.39062L99.4697 4.64453L97.8564 8.39062H101.042ZM107.823 7.03027H112.13V4.37793C112.13 3.90397 112.1 3.5918 112.041 3.44141C111.995 3.32747 111.9 3.22949 111.754 3.14746C111.558 3.03809 111.351 2.9834 111.132 2.9834H110.804V2.73047H114.769V2.9834H114.44C114.222 2.9834 114.014 3.03581 113.818 3.14062C113.673 3.21354 113.572 3.3252 113.518 3.47559C113.467 3.62142 113.442 3.9222 113.442 4.37793V10.3594C113.442 10.8288 113.472 11.1387 113.531 11.2891C113.577 11.403 113.67 11.501 113.812 11.583C114.012 11.6924 114.222 11.7471 114.44 11.7471H114.769V12H110.804V11.7471H111.132C111.51 11.7471 111.786 11.6354 111.959 11.4121C112.073 11.2663 112.13 10.9154 112.13 10.3594V7.53613H107.823V10.3594C107.823 10.8288 107.853 11.1387 107.912 11.2891C107.958 11.403 108.053 11.501 108.199 11.583C108.395 11.6924 108.603 11.7471 108.821 11.7471H109.156V12H105.185V11.7471H105.513C105.896 11.7471 106.174 11.6354 106.347 11.4121C106.456 11.2663 106.511 10.9154 106.511 10.3594V4.37793C106.511 3.90397 106.481 3.5918 106.422 3.44141C106.376 3.32747 106.283 3.22949 106.142 3.14746C105.941 3.03809 105.731 2.9834 105.513 2.9834H105.185V2.73047H109.156V2.9834H108.821C108.603 2.9834 108.395 3.03581 108.199 3.14062C108.058 3.21354 107.96 3.3252 107.905 3.47559C107.851 3.62142 107.823 3.9222 107.823 4.37793V7.03027ZM124.523 12H122.049L118.911 7.66602C118.679 7.67513 118.49 7.67969 118.344 7.67969C118.285 7.67969 118.221 7.67969 118.152 7.67969C118.084 7.67513 118.013 7.67057 117.94 7.66602V10.3594C117.94 10.9427 118.004 11.305 118.132 11.4463C118.305 11.6468 118.565 11.7471 118.911 11.7471H119.273V12H115.302V11.7471H115.65C116.042 11.7471 116.323 11.6195 116.491 11.3643C116.587 11.223 116.635 10.888 116.635 10.3594V4.37109C116.635 3.78776 116.571 3.42546 116.443 3.28418C116.266 3.08366 116.001 2.9834 115.65 2.9834H115.302V2.73047H118.679C119.663 2.73047 120.388 2.80339 120.853 2.94922C121.322 3.09049 121.718 3.35482 122.042 3.74219C122.37 4.125 122.534 4.58301 122.534 5.11621C122.534 5.68587 122.347 6.18034 121.974 6.59961C121.604 7.01888 121.03 7.3151 120.251 7.48828L122.165 10.1475C122.603 10.7581 122.979 11.1637 123.293 11.3643C123.607 11.5648 124.018 11.6924 124.523 11.7471V12ZM117.94 7.23535C118.027 7.23535 118.102 7.23763 118.166 7.24219C118.23 7.24219 118.282 7.24219 118.323 7.24219C119.207 7.24219 119.873 7.05078 120.319 6.66797C120.771 6.28516 120.996 5.79753 120.996 5.20508C120.996 4.6263 120.814 4.1569 120.449 3.79688C120.089 3.43229 119.611 3.25 119.014 3.25C118.749 3.25 118.392 3.29329 117.94 3.37988V7.23535ZM128.721 11.7471V12H124.749V11.7471H125.077C125.46 11.7471 125.738 11.6354 125.911 11.4121C126.021 11.2663 126.075 10.9154 126.075 10.3594V4.37109C126.075 3.90169 126.046 3.5918 125.986 3.44141C125.941 3.32747 125.847 3.22949 125.706 3.14746C125.506 3.03809 125.296 2.9834 125.077 2.9834H124.749V2.73047H128.721V2.9834H128.386C128.007 2.9834 127.732 3.09505 127.559 3.31836C127.445 3.46419 127.388 3.8151 127.388 4.37109V10.3594C127.388 10.8288 127.417 11.1387 127.477 11.2891C127.522 11.403 127.618 11.501 127.764 11.583C127.96 11.6924 128.167 11.7471 128.386 11.7471H128.721ZM129.302 12V11.7471H129.65C130.042 11.7471 130.32 11.6217 130.484 11.3711C130.585 11.2207 130.635 10.8835 130.635 10.3594V4.37109C130.635 3.79232 130.571 3.43001 130.443 3.28418C130.266 3.08366 130.001 2.9834 129.65 2.9834H129.302V2.73047H133.075C134.461 2.73047 135.513 2.8877 136.233 3.20215C136.958 3.5166 137.539 4.04069 137.977 4.77441C138.419 5.50814 138.64 6.35579 138.64 7.31738C138.64 8.6071 138.248 9.6849 137.464 10.5508C136.584 11.5169 135.244 12 133.444 12H129.302ZM131.947 11.3301C132.526 11.4577 133.011 11.5215 133.403 11.5215C134.461 11.5215 135.338 11.1501 136.035 10.4072C136.732 9.66439 137.081 8.65723 137.081 7.38574C137.081 6.10514 136.732 5.0957 136.035 4.35742C135.338 3.61914 134.442 3.25 133.349 3.25C132.938 3.25 132.471 3.31608 131.947 3.44824V11.3301ZM145.585 8.89648H141.996L141.367 10.3594C141.212 10.7194 141.135 10.9883 141.135 11.166C141.135 11.3073 141.201 11.4326 141.333 11.542C141.47 11.6468 141.761 11.7152 142.208 11.7471V12H139.289V11.7471C139.676 11.6787 139.927 11.5898 140.041 11.4805C140.273 11.2617 140.531 10.8174 140.813 10.1475L144.074 2.51855H144.313L147.54 10.2295C147.8 10.8493 148.035 11.2526 148.244 11.4395C148.458 11.6217 148.755 11.7243 149.133 11.7471V12H145.476V11.7471C145.845 11.7288 146.093 11.6673 146.221 11.5625C146.353 11.4577 146.419 11.3301 146.419 11.1797C146.419 10.9792 146.328 10.6624 146.146 10.2295L145.585 8.89648ZM145.394 8.39062L143.821 4.64453L142.208 8.39062H145.394ZM157.89 2.51855L158.129 5.44434H157.89C157.648 4.71517 157.336 4.16602 156.953 3.79688C156.402 3.26367 155.693 2.99707 154.827 2.99707C153.647 2.99707 152.749 3.46419 152.134 4.39844C151.619 5.18685 151.361 6.12565 151.361 7.21484C151.361 8.09896 151.532 8.9056 151.874 9.63477C152.216 10.3639 152.662 10.8994 153.214 11.2412C153.77 11.5785 154.34 11.7471 154.923 11.7471C155.265 11.7471 155.595 11.7038 155.914 11.6172C156.233 11.5306 156.541 11.403 156.837 11.2344V8.55469C156.837 8.08984 156.8 7.78678 156.728 7.64551C156.659 7.49967 156.55 7.3903 156.399 7.31738C156.254 7.23991 155.994 7.20117 155.62 7.20117V6.94141H159.209V7.20117H159.038C158.683 7.20117 158.439 7.31966 158.307 7.55664C158.215 7.72526 158.17 8.05794 158.17 8.55469V11.3916C157.646 11.6742 157.129 11.8815 156.618 12.0137C156.108 12.1458 155.54 12.2119 154.916 12.2119C153.125 12.2119 151.765 11.6377 150.835 10.4893C150.138 9.62793 149.789 8.63444 149.789 7.50879C149.789 6.69303 149.985 5.91146 150.377 5.16406C150.842 4.27539 151.48 3.5918 152.291 3.11328C152.97 2.7168 153.772 2.51855 154.697 2.51855C155.035 2.51855 155.34 2.5459 155.613 2.60059C155.891 2.65527 156.283 2.77604 156.789 2.96289C157.044 3.05859 157.215 3.10645 157.302 3.10645C157.388 3.10645 157.461 3.06771 157.521 2.99023C157.584 2.9082 157.623 2.75098 157.637 2.51855H157.89ZM163.734 11.7471V12H159.763V11.7471H160.091C160.474 11.7471 160.752 11.6354 160.925 11.4121C161.034 11.2663 161.089 10.9154 161.089 10.3594V4.37109C161.089 3.90169 161.059 3.5918 161 3.44141C160.954 3.32747 160.861 3.22949 160.72 3.14746C160.519 3.03809 160.31 2.9834 160.091 2.9834H159.763V2.73047H163.734V2.9834H163.399C163.021 2.9834 162.745 3.09505 162.572 3.31836C162.458 3.46419 162.401 3.8151 162.401 4.37109V10.3594C162.401 10.8288 162.431 11.1387 162.49 11.2891C162.536 11.403 162.632 11.501 162.777 11.583C162.973 11.6924 163.181 11.7471 163.399 11.7471H163.734ZM171.896 11.7471V12H167.925V11.7471H168.253C168.636 11.7471 168.914 11.6354 169.087 11.4121C169.196 11.2663 169.251 10.9154 169.251 10.3594V4.37109C169.251 3.90169 169.221 3.5918 169.162 3.44141C169.117 3.32747 169.023 3.22949 168.882 3.14746C168.681 3.03809 168.472 2.9834 168.253 2.9834H167.925V2.73047H171.896V2.9834H171.562C171.183 2.9834 170.908 3.09505 170.734 3.31836C170.62 3.46419 170.563 3.8151 170.563 4.37109V10.3594C170.563 10.8288 170.593 11.1387 170.652 11.2891C170.698 11.403 170.794 11.501 170.939 11.583C171.135 11.6924 171.343 11.7471 171.562 11.7471H171.896ZM172.054 2.73047H174.569L180.236 9.68262V4.33691C180.236 3.76725 180.173 3.41178 180.045 3.27051C179.876 3.0791 179.61 2.9834 179.245 2.9834H178.924V2.73047H182.15V2.9834H181.822C181.43 2.9834 181.152 3.10189 180.988 3.33887C180.888 3.4847 180.838 3.81738 180.838 4.33691V12.1504H180.592L174.48 4.68555V10.3936C174.48 10.9632 174.542 11.3187 174.665 11.46C174.838 11.6514 175.105 11.7471 175.465 11.7471H175.793V12H172.566V11.7471H172.888C173.284 11.7471 173.564 11.6286 173.729 11.3916C173.829 11.2458 173.879 10.9131 173.879 10.3936V3.94727C173.61 3.63281 173.405 3.42546 173.264 3.3252C173.127 3.22493 172.924 3.13151 172.655 3.04492C172.523 3.00391 172.323 2.9834 172.054 2.9834V2.73047ZM185.233 7.03027H189.54V4.37793C189.54 3.90397 189.51 3.5918 189.451 3.44141C189.406 3.32747 189.31 3.22949 189.164 3.14746C188.968 3.03809 188.761 2.9834 188.542 2.9834H188.214V2.73047H192.179V2.9834H191.851C191.632 2.9834 191.424 3.03581 191.229 3.14062C191.083 3.21354 190.982 3.3252 190.928 3.47559C190.878 3.62142 190.853 3.9222 190.853 4.37793V10.3594C190.853 10.8288 190.882 11.1387 190.941 11.2891C190.987 11.403 191.08 11.501 191.222 11.583C191.422 11.6924 191.632 11.7471 191.851 11.7471H192.179V12H188.214V11.7471H188.542C188.92 11.7471 189.196 11.6354 189.369 11.4121C189.483 11.2663 189.54 10.9154 189.54 10.3594V7.53613H185.233V10.3594C185.233 10.8288 185.263 11.1387 185.322 11.2891C185.368 11.403 185.464 11.501 185.609 11.583C185.805 11.6924 186.013 11.7471 186.231 11.7471H186.566V12H182.595V11.7471H182.923C183.306 11.7471 183.584 11.6354 183.757 11.4121C183.866 11.2663 183.921 10.9154 183.921 10.3594V4.37793C183.921 3.90397 183.891 3.5918 183.832 3.44141C183.786 3.32747 183.693 3.22949 183.552 3.14746C183.351 3.03809 183.142 2.9834 182.923 2.9834H182.595V2.73047H186.566V2.9834H186.231C186.013 2.9834 185.805 3.03581 185.609 3.14062C185.468 3.21354 185.37 3.3252 185.315 3.47559C185.261 3.62142 185.233 3.9222 185.233 4.37793V7.03027ZM198.878 8.89648H195.289L194.66 10.3594C194.505 10.7194 194.428 10.9883 194.428 11.166C194.428 11.3073 194.494 11.4326 194.626 11.542C194.763 11.6468 195.054 11.7152 195.501 11.7471V12H192.582V11.7471C192.969 11.6787 193.22 11.5898 193.334 11.4805C193.566 11.2617 193.824 10.8174 194.106 10.1475L197.367 2.51855H197.606L200.833 10.2295C201.093 10.8493 201.327 11.2526 201.537 11.4395C201.751 11.6217 202.048 11.7243 202.426 11.7471V12H198.769V11.7471C199.138 11.7288 199.386 11.6673 199.514 11.5625C199.646 11.4577 199.712 11.3301 199.712 11.1797C199.712 10.9792 199.621 10.6624 199.438 10.2295L198.878 8.89648ZM198.687 8.39062L197.114 4.64453L195.501 8.39062H198.687ZM211.989 2.9834V2.73047H215.271V2.9834H214.922C214.557 2.9834 214.277 3.13607 214.081 3.44141C213.985 3.58268 213.938 3.91081 213.938 4.42578V8.18555C213.938 9.11523 213.844 9.83757 213.657 10.3525C213.475 10.863 213.113 11.3027 212.57 11.6719C212.033 12.0365 211.299 12.2188 210.369 12.2188C209.357 12.2188 208.59 12.0433 208.065 11.6924C207.541 11.3415 207.17 10.8698 206.951 10.2773C206.805 9.87174 206.732 9.11068 206.732 7.99414V4.37109C206.732 3.80143 206.653 3.42773 206.493 3.25C206.338 3.07227 206.085 2.9834 205.734 2.9834H205.386V2.73047H209.392V2.9834H209.036C208.653 2.9834 208.38 3.10417 208.216 3.3457C208.102 3.50977 208.045 3.85156 208.045 4.37109V8.41113C208.045 8.77116 208.077 9.18359 208.141 9.64844C208.209 10.1133 208.33 10.4756 208.503 10.7354C208.676 10.9951 208.924 11.2093 209.248 11.3779C209.576 11.5465 209.977 11.6309 210.451 11.6309C211.057 11.6309 211.6 11.4987 212.078 11.2344C212.557 10.9701 212.882 10.6328 213.056 10.2227C213.233 9.80794 213.322 9.1084 213.322 8.12402V4.37109C213.322 3.79232 213.258 3.43001 213.131 3.28418C212.953 3.08366 212.689 2.9834 212.338 2.9834H211.989ZM215.243 2.73047H217.759L223.426 9.68262V4.33691C223.426 3.76725 223.362 3.41178 223.234 3.27051C223.066 3.0791 222.799 2.9834 222.435 2.9834H222.113V2.73047H225.34V2.9834H225.012C224.62 2.9834 224.342 3.10189 224.178 3.33887C224.077 3.4847 224.027 3.81738 224.027 4.33691V12.1504H223.781L217.67 4.68555V10.3936C217.67 10.9632 217.731 11.3187 217.854 11.46C218.028 11.6514 218.294 11.7471 218.654 11.7471H218.982V12H215.756V11.7471H216.077C216.474 11.7471 216.754 11.6286 216.918 11.3916C217.018 11.2458 217.068 10.9131 217.068 10.3936V3.94727C216.799 3.63281 216.594 3.42546 216.453 3.3252C216.316 3.22493 216.114 3.13151 215.845 3.04492C215.713 3.00391 215.512 2.9834 215.243 2.9834V2.73047ZM229.865 11.7471V12H225.894V11.7471H226.222C226.604 11.7471 226.882 11.6354 227.056 11.4121C227.165 11.2663 227.22 10.9154 227.22 10.3594V4.37109C227.22 3.90169 227.19 3.5918 227.131 3.44141C227.085 3.32747 226.992 3.22949 226.851 3.14746C226.65 3.03809 226.44 2.9834 226.222 2.9834H225.894V2.73047H229.865V2.9834H229.53C229.152 2.9834 228.876 3.09505 228.703 3.31836C228.589 3.46419 228.532 3.8151 228.532 4.37109V10.3594C228.532 10.8288 228.562 11.1387 228.621 11.2891C228.667 11.403 228.762 11.501 228.908 11.583C229.104 11.6924 229.312 11.7471 229.53 11.7471H229.865ZM240.146 2.73047V2.9834C239.818 3.04264 239.57 3.14746 239.401 3.29785C239.16 3.52116 238.946 3.86296 238.759 4.32324L235.525 12.2119H235.272L231.8 4.2207C231.622 3.81055 231.497 3.5599 231.424 3.46875C231.31 3.32747 231.169 3.2181 231 3.14062C230.836 3.05859 230.613 3.00618 230.33 2.9834V2.73047H234.117V2.9834C233.689 3.02441 233.411 3.09733 233.283 3.20215C233.156 3.30697 233.092 3.44141 233.092 3.60547C233.092 3.83333 233.197 4.1888 233.406 4.67188L235.765 10.1064L237.952 4.74023C238.166 4.21159 238.273 3.84473 238.273 3.63965C238.273 3.50749 238.207 3.38216 238.075 3.26367C237.943 3.14062 237.72 3.05404 237.405 3.00391C237.382 2.99935 237.344 2.99251 237.289 2.9834V2.73047H240.146ZM243.25 3.23633V6.90039H245.287C245.816 6.90039 246.169 6.82064 246.347 6.66113C246.584 6.4515 246.716 6.08236 246.743 5.55371H246.996V8.78027H246.743C246.679 8.3291 246.616 8.03971 246.552 7.91211C246.47 7.7526 246.335 7.62728 246.148 7.53613C245.962 7.44499 245.674 7.39941 245.287 7.39941H243.25V10.4551C243.25 10.8652 243.268 11.1159 243.305 11.207C243.341 11.2936 243.405 11.3643 243.496 11.4189C243.587 11.4691 243.76 11.4941 244.016 11.4941H245.588C246.112 11.4941 246.493 11.4577 246.729 11.3848C246.966 11.3118 247.194 11.1683 247.413 10.9541C247.696 10.6715 247.985 10.2454 248.281 9.67578H248.555L247.755 12H240.611V11.7471H240.939C241.158 11.7471 241.366 11.6947 241.562 11.5898C241.707 11.5169 241.805 11.4076 241.855 11.2617C241.91 11.1159 241.938 10.8174 241.938 10.3662V4.34375C241.938 3.75586 241.878 3.39355 241.76 3.25684C241.596 3.07454 241.322 2.9834 240.939 2.9834H240.611V2.73047H247.755L247.857 4.76074H247.591C247.495 4.27311 247.388 3.93815 247.27 3.75586C247.156 3.57357 246.985 3.43457 246.757 3.33887C246.575 3.27051 246.253 3.23633 245.793 3.23633H243.25ZM258.344 12H255.869L252.731 7.66602C252.499 7.67513 252.31 7.67969 252.164 7.67969C252.105 7.67969 252.041 7.67969 251.973 7.67969C251.904 7.67513 251.834 7.67057 251.761 7.66602V10.3594C251.761 10.9427 251.825 11.305 251.952 11.4463C252.125 11.6468 252.385 11.7471 252.731 11.7471H253.094V12H249.122V11.7471H249.471C249.863 11.7471 250.143 11.6195 250.312 11.3643C250.407 11.223 250.455 10.888 250.455 10.3594V4.37109C250.455 3.78776 250.391 3.42546 250.264 3.28418C250.086 3.08366 249.822 2.9834 249.471 2.9834H249.122V2.73047H252.499C253.483 2.73047 254.208 2.80339 254.673 2.94922C255.142 3.09049 255.539 3.35482 255.862 3.74219C256.19 4.125 256.354 4.58301 256.354 5.11621C256.354 5.68587 256.168 6.18034 255.794 6.59961C255.425 7.01888 254.851 7.3151 254.071 7.48828L255.985 10.1475C256.423 10.7581 256.799 11.1637 257.113 11.3643C257.428 11.5648 257.838 11.6924 258.344 11.7471V12ZM251.761 7.23535C251.847 7.23535 251.923 7.23763 251.986 7.24219C252.05 7.24219 252.103 7.24219 252.144 7.24219C253.028 7.24219 253.693 7.05078 254.14 6.66797C254.591 6.28516 254.816 5.79753 254.816 5.20508C254.816 4.6263 254.634 4.1569 254.27 3.79688C253.91 3.43229 253.431 3.25 252.834 3.25C252.57 3.25 252.212 3.29329 251.761 3.37988V7.23535ZM264.64 2.51855V5.72461H264.387C264.305 5.10938 264.157 4.61947 263.942 4.25488C263.733 3.8903 263.432 3.60091 263.04 3.38672C262.648 3.17253 262.243 3.06543 261.823 3.06543C261.349 3.06543 260.957 3.21126 260.647 3.50293C260.338 3.79004 260.183 4.11816 260.183 4.4873C260.183 4.76986 260.281 5.02734 260.477 5.25977C260.759 5.60156 261.431 6.05729 262.493 6.62695C263.359 7.0918 263.949 7.44954 264.264 7.7002C264.583 7.94629 264.826 8.23796 264.995 8.5752C265.168 8.91243 265.255 9.26562 265.255 9.63477C265.255 10.3366 264.981 10.9427 264.435 11.4531C263.892 11.959 263.193 12.2119 262.336 12.2119C262.067 12.2119 261.814 12.1914 261.577 12.1504C261.436 12.1276 261.142 12.0456 260.695 11.9043C260.253 11.7585 259.973 11.6855 259.854 11.6855C259.741 11.6855 259.649 11.7197 259.581 11.7881C259.517 11.8564 259.469 11.9977 259.438 12.2119H259.185V9.0332H259.438C259.556 9.69857 259.715 10.1976 259.916 10.5303C260.117 10.8584 260.422 11.1318 260.832 11.3506C261.247 11.5693 261.7 11.6787 262.192 11.6787C262.762 11.6787 263.211 11.5283 263.539 11.2275C263.872 10.9268 264.038 10.5713 264.038 10.1611C264.038 9.93327 263.974 9.70312 263.847 9.4707C263.724 9.23828 263.53 9.02181 263.266 8.82129C263.088 8.68457 262.603 8.39518 261.81 7.95312C261.017 7.50651 260.451 7.15104 260.114 6.88672C259.782 6.6224 259.529 6.33073 259.355 6.01172C259.182 5.69271 259.096 5.3418 259.096 4.95898C259.096 4.29362 259.351 3.72168 259.861 3.24316C260.372 2.76009 261.021 2.51855 261.81 2.51855C262.302 2.51855 262.824 2.63932 263.375 2.88086C263.63 2.99479 263.81 3.05176 263.915 3.05176C264.034 3.05176 264.129 3.01758 264.202 2.94922C264.28 2.8763 264.341 2.73275 264.387 2.51855H264.64ZM270.334 11.7471V12H266.362V11.7471H266.69C267.073 11.7471 267.351 11.6354 267.524 11.4121C267.634 11.2663 267.688 10.9154 267.688 10.3594V4.37109C267.688 3.90169 267.659 3.5918 267.6 3.44141C267.554 3.32747 267.461 3.22949 267.319 3.14746C267.119 3.03809 266.909 2.9834 266.69 2.9834H266.362V2.73047H270.334V2.9834H269.999C269.621 2.9834 269.345 3.09505 269.172 3.31836C269.058 3.46419 269.001 3.8151 269.001 4.37109V10.3594C269.001 10.8288 269.031 11.1387 269.09 11.2891C269.135 11.403 269.231 11.501 269.377 11.583C269.573 11.6924 269.78 11.7471 269.999 11.7471H270.334ZM278.776 2.73047L278.879 4.9043H278.619C278.569 4.52148 278.501 4.24805 278.414 4.08398C278.273 3.81966 278.084 3.62598 277.847 3.50293C277.614 3.37533 277.307 3.31152 276.924 3.31152H275.618V10.3936C275.618 10.9632 275.68 11.3187 275.803 11.46C275.976 11.6514 276.243 11.7471 276.603 11.7471H276.924V12H272.993V11.7471H273.321C273.713 11.7471 273.991 11.6286 274.155 11.3916C274.256 11.2458 274.306 10.9131 274.306 10.3936V3.31152H273.191C272.758 3.31152 272.451 3.34342 272.269 3.40723C272.032 3.49382 271.829 3.66016 271.66 3.90625C271.492 4.15234 271.391 4.48503 271.359 4.9043H271.1L271.209 2.73047H278.776ZM282.16 3.23633V6.90039H284.197C284.726 6.90039 285.079 6.82064 285.257 6.66113C285.494 6.4515 285.626 6.08236 285.653 5.55371H285.906V8.78027H285.653C285.59 8.3291 285.526 8.03971 285.462 7.91211C285.38 7.7526 285.245 7.62728 285.059 7.53613C284.872 7.44499 284.585 7.39941 284.197 7.39941H282.16V10.4551C282.16 10.8652 282.178 11.1159 282.215 11.207C282.251 11.2936 282.315 11.3643 282.406 11.4189C282.497 11.4691 282.671 11.4941 282.926 11.4941H284.498C285.022 11.4941 285.403 11.4577 285.64 11.3848C285.877 11.3118 286.104 11.1683 286.323 10.9541C286.606 10.6715 286.895 10.2454 287.191 9.67578H287.465L286.665 12H279.521V11.7471H279.85C280.068 11.7471 280.276 11.6947 280.472 11.5898C280.618 11.5169 280.715 11.4076 280.766 11.2617C280.82 11.1159 280.848 10.8174 280.848 10.3662V4.34375C280.848 3.75586 280.788 3.39355 280.67 3.25684C280.506 3.07454 280.232 2.9834 279.85 2.9834H279.521V2.73047H286.665L286.768 4.76074H286.501C286.405 4.27311 286.298 3.93815 286.18 3.75586C286.066 3.57357 285.895 3.43457 285.667 3.33887C285.485 3.27051 285.163 3.23633 284.703 3.23633H282.16ZM295.894 2.73047L295.996 4.9043H295.736C295.686 4.52148 295.618 4.24805 295.531 4.08398C295.39 3.81966 295.201 3.62598 294.964 3.50293C294.731 3.37533 294.424 3.31152 294.041 3.31152H292.735V10.3936C292.735 10.9632 292.797 11.3187 292.92 11.46C293.093 11.6514 293.36 11.7471 293.72 11.7471H294.041V12H290.11V11.7471H290.438C290.83 11.7471 291.108 11.6286 291.272 11.3916C291.373 11.2458 291.423 10.9131 291.423 10.3936V3.31152H290.309C289.876 3.31152 289.568 3.34342 289.386 3.40723C289.149 3.49382 288.946 3.66016 288.777 3.90625C288.609 4.15234 288.508 4.48503 288.477 4.9043H288.217L288.326 2.73047H295.894ZM300.672 11.7471V12H296.7V11.7471H297.028C297.411 11.7471 297.689 11.6354 297.862 11.4121C297.972 11.2663 298.026 10.9154 298.026 10.3594V4.37109C298.026 3.90169 297.997 3.5918 297.938 3.44141C297.892 3.32747 297.799 3.22949 297.657 3.14746C297.457 3.03809 297.247 2.9834 297.028 2.9834H296.7V2.73047H300.672V2.9834H300.337C299.959 2.9834 299.683 3.09505 299.51 3.31836C299.396 3.46419 299.339 3.8151 299.339 4.37109V10.3594C299.339 10.8288 299.368 11.1387 299.428 11.2891C299.473 11.403 299.569 11.501 299.715 11.583C299.911 11.6924 300.118 11.7471 300.337 11.7471H300.672ZM4.32031 28.7471V29H0.348633V28.7471H0.676758C1.05957 28.7471 1.33757 28.6354 1.51074 28.4121C1.62012 28.2663 1.6748 27.9154 1.6748 27.3594V21.3711C1.6748 20.9017 1.64518 20.5918 1.58594 20.4414C1.54036 20.3275 1.44694 20.2295 1.30566 20.1475C1.10514 20.0381 0.895508 19.9834 0.676758 19.9834H0.348633V19.7305H4.32031V19.9834H3.98535C3.6071 19.9834 3.33138 20.0951 3.1582 20.3184C3.04427 20.4642 2.9873 20.8151 2.9873 21.3711V27.3594C2.9873 27.8288 3.01693 28.1387 3.07617 28.2891C3.12174 28.403 3.21745 28.501 3.36328 28.583C3.55924 28.6924 3.7666 28.7471 3.98535 28.7471H4.32031ZM4.47754 19.7305H6.99316L12.6602 26.6826V21.3369C12.6602 20.7673 12.5964 20.4118 12.4688 20.2705C12.3001 20.0791 12.0335 19.9834 11.6689 19.9834H11.3477V19.7305H14.5742V19.9834H14.2461C13.8542 19.9834 13.5762 20.1019 13.4121 20.3389C13.3118 20.4847 13.2617 20.8174 13.2617 21.3369V29.1504H13.0156L6.9043 21.6855V27.3936C6.9043 27.9632 6.96582 28.3187 7.08887 28.46C7.26204 28.6514 7.52865 28.7471 7.88867 28.7471H8.2168V29H4.99023V28.7471H5.31152C5.70801 28.7471 5.98828 28.6286 6.15234 28.3916C6.2526 28.2458 6.30273 27.9131 6.30273 27.3936V20.9473C6.03385 20.6328 5.82878 20.4255 5.6875 20.3252C5.55078 20.2249 5.34798 20.1315 5.0791 20.0449C4.94694 20.0039 4.74642 19.9834 4.47754 19.9834V19.7305ZM17.6572 24.0303H21.9639V21.3779C21.9639 20.904 21.9342 20.5918 21.875 20.4414C21.8294 20.3275 21.7337 20.2295 21.5879 20.1475C21.3919 20.0381 21.1846 19.9834 20.9658 19.9834H20.6377V19.7305H24.6025V19.9834H24.2744C24.0557 19.9834 23.8483 20.0358 23.6523 20.1406C23.5065 20.2135 23.4062 20.3252 23.3516 20.4756C23.3014 20.6214 23.2764 20.9222 23.2764 21.3779V27.3594C23.2764 27.8288 23.306 28.1387 23.3652 28.2891C23.4108 28.403 23.5042 28.501 23.6455 28.583C23.846 28.6924 24.0557 28.7471 24.2744 28.7471H24.6025V29H20.6377V28.7471H20.9658C21.3441 28.7471 21.6198 28.6354 21.793 28.4121C21.9069 28.2663 21.9639 27.9154 21.9639 27.3594V24.5361H17.6572V27.3594C17.6572 27.8288 17.6868 28.1387 17.7461 28.2891C17.7917 28.403 17.8874 28.501 18.0332 28.583C18.2292 28.6924 18.4365 28.7471 18.6553 28.7471H18.9902V29H15.0186V28.7471H15.3467C15.7295 28.7471 16.0075 28.6354 16.1807 28.4121C16.29 28.2663 16.3447 27.9154 16.3447 27.3594V21.3779C16.3447 20.904 16.3151 20.5918 16.2559 20.4414C16.2103 20.3275 16.1169 20.2295 15.9756 20.1475C15.7751 20.0381 15.5654 19.9834 15.3467 19.9834H15.0186V19.7305H18.9902V19.9834H18.6553C18.4365 19.9834 18.2292 20.0358 18.0332 20.1406C17.8919 20.2135 17.7939 20.3252 17.7393 20.4756C17.6846 20.6214 17.6572 20.9222 17.6572 21.3779V24.0303ZM31.3018 25.8965H27.7129L27.084 27.3594C26.929 27.7194 26.8516 27.9883 26.8516 28.166C26.8516 28.3073 26.9176 28.4326 27.0498 28.542C27.1865 28.6468 27.4782 28.7152 27.9248 28.7471V29H25.0059V28.7471C25.3932 28.6787 25.6439 28.5898 25.7578 28.4805C25.9902 28.2617 26.2477 27.8174 26.5303 27.1475L29.791 19.5186H30.0303L33.2568 27.2295C33.5166 27.8493 33.7513 28.2526 33.9609 28.4395C34.1751 28.6217 34.4714 28.7243 34.8496 28.7471V29H31.1924V28.7471C31.5615 28.7288 31.8099 28.6673 31.9375 28.5625C32.0697 28.4577 32.1357 28.3301 32.1357 28.1797C32.1357 27.9792 32.0446 27.6624 31.8623 27.2295L31.3018 25.8965ZM31.1104 25.3906L29.5381 21.6445L27.9248 25.3906H31.1104ZM44.4131 19.9834V19.7305H47.6943V19.9834H47.3457C46.9811 19.9834 46.7008 20.1361 46.5049 20.4414C46.4092 20.5827 46.3613 20.9108 46.3613 21.4258V25.1855C46.3613 26.1152 46.2679 26.8376 46.0811 27.3525C45.8988 27.863 45.5365 28.3027 44.9941 28.6719C44.4564 29.0365 43.7227 29.2188 42.793 29.2188C41.7812 29.2188 41.0133 29.0433 40.4893 28.6924C39.9652 28.3415 39.5938 27.8698 39.375 27.2773C39.2292 26.8717 39.1562 26.1107 39.1562 24.9941V21.3711C39.1562 20.8014 39.0765 20.4277 38.917 20.25C38.762 20.0723 38.5091 19.9834 38.1582 19.9834H37.8096V19.7305H41.8154V19.9834H41.46C41.0771 19.9834 40.8037 20.1042 40.6396 20.3457C40.5257 20.5098 40.4688 20.8516 40.4688 21.3711V25.4111C40.4688 25.7712 40.5007 26.1836 40.5645 26.6484C40.6328 27.1133 40.7536 27.4756 40.9268 27.7354C41.0999 27.9951 41.3483 28.2093 41.6719 28.3779C42 28.5465 42.401 28.6309 42.875 28.6309C43.4811 28.6309 44.0234 28.4987 44.502 28.2344C44.9805 27.9701 45.3063 27.6328 45.4795 27.2227C45.6572 26.8079 45.7461 26.1084 45.7461 25.124V21.3711C45.7461 20.7923 45.6823 20.43 45.5547 20.2842C45.377 20.0837 45.1126 19.9834 44.7617 19.9834H44.4131ZM47.667 19.7305H50.1826L55.8496 26.6826V21.3369C55.8496 20.7673 55.7858 20.4118 55.6582 20.2705C55.4896 20.0791 55.223 19.9834 54.8584 19.9834H54.5371V19.7305H57.7637V19.9834H57.4355C57.0436 19.9834 56.7656 20.1019 56.6016 20.3389C56.5013 20.4847 56.4512 20.8174 56.4512 21.3369V29.1504H56.2051L50.0938 21.6855V27.3936C50.0938 27.9632 50.1553 28.3187 50.2783 28.46C50.4515 28.6514 50.7181 28.7471 51.0781 28.7471H51.4062V29H48.1797V28.7471H48.501C48.8975 28.7471 49.1777 28.6286 49.3418 28.3916C49.4421 28.2458 49.4922 27.9131 49.4922 27.3936V20.9473C49.2233 20.6328 49.0182 20.4255 48.877 20.3252C48.7402 20.2249 48.5374 20.1315 48.2686 20.0449C48.1364 20.0039 47.9359 19.9834 47.667 19.9834V19.7305ZM62.2891 28.7471V29H58.3174V28.7471H58.6455C59.0283 28.7471 59.3063 28.6354 59.4795 28.4121C59.5889 28.2663 59.6436 27.9154 59.6436 27.3594V21.3711C59.6436 20.9017 59.6139 20.5918 59.5547 20.4414C59.5091 20.3275 59.4157 20.2295 59.2744 20.1475C59.0739 20.0381 58.8643 19.9834 58.6455 19.9834H58.3174V19.7305H62.2891V19.9834H61.9541C61.5758 19.9834 61.3001 20.0951 61.127 20.3184C61.013 20.4642 60.9561 20.8151 60.9561 21.3711V27.3594C60.9561 27.8288 60.9857 28.1387 61.0449 28.2891C61.0905 28.403 61.1862 28.501 61.332 28.583C61.528 28.6924 61.7354 28.7471 61.9541 28.7471H62.2891ZM72.5703 19.7305V19.9834C72.2422 20.0426 71.9938 20.1475 71.8252 20.2979C71.5837 20.5212 71.3695 20.863 71.1826 21.3232L67.9492 29.2119H67.6963L64.2236 21.2207C64.0459 20.8105 63.9206 20.5599 63.8477 20.4688C63.7337 20.3275 63.5924 20.2181 63.4238 20.1406C63.2598 20.0586 63.0365 20.0062 62.7539 19.9834V19.7305H66.541V19.9834C66.1126 20.0244 65.8346 20.0973 65.707 20.2021C65.5794 20.307 65.5156 20.4414 65.5156 20.6055C65.5156 20.8333 65.6204 21.1888 65.8301 21.6719L68.1885 27.1064L70.376 21.7402C70.5902 21.2116 70.6973 20.8447 70.6973 20.6396C70.6973 20.5075 70.6312 20.3822 70.499 20.2637C70.3669 20.1406 70.1436 20.054 69.8291 20.0039C69.8063 19.9993 69.7676 19.9925 69.7129 19.9834V19.7305H72.5703ZM75.6738 20.2363V23.9004H77.7109C78.2396 23.9004 78.5928 23.8206 78.7705 23.6611C79.0075 23.4515 79.1396 23.0824 79.167 22.5537H79.4199V25.7803H79.167C79.1032 25.3291 79.0394 25.0397 78.9756 24.9121C78.8936 24.7526 78.7591 24.6273 78.5723 24.5361C78.3854 24.445 78.0983 24.3994 77.7109 24.3994H75.6738V27.4551C75.6738 27.8652 75.6921 28.1159 75.7285 28.207C75.765 28.2936 75.8288 28.3643 75.9199 28.4189C76.0111 28.4691 76.1842 28.4941 76.4395 28.4941H78.0117C78.5358 28.4941 78.9163 28.4577 79.1533 28.3848C79.3903 28.3118 79.6182 28.1683 79.8369 27.9541C80.1195 27.6715 80.4089 27.2454 80.7051 26.6758H80.9785L80.1787 29H73.0352V28.7471H73.3633C73.582 28.7471 73.7894 28.6947 73.9854 28.5898C74.1312 28.5169 74.2292 28.4076 74.2793 28.2617C74.334 28.1159 74.3613 27.8174 74.3613 27.3662V21.3438C74.3613 20.7559 74.3021 20.3936 74.1836 20.2568C74.0195 20.0745 73.7461 19.9834 73.3633 19.9834H73.0352V19.7305H80.1787L80.2812 21.7607H80.0146C79.9189 21.2731 79.8118 20.9382 79.6934 20.7559C79.5794 20.5736 79.4085 20.4346 79.1807 20.3389C78.9984 20.2705 78.6771 20.2363 78.2168 20.2363H75.6738ZM90.7676 29H88.293L85.1553 24.666C84.9229 24.6751 84.7337 24.6797 84.5879 24.6797C84.5286 24.6797 84.4648 24.6797 84.3965 24.6797C84.3281 24.6751 84.2575 24.6706 84.1846 24.666V27.3594C84.1846 27.9427 84.2484 28.305 84.376 28.4463C84.5492 28.6468 84.8089 28.7471 85.1553 28.7471H85.5176V29H81.5459V28.7471H81.8945C82.2865 28.7471 82.5667 28.6195 82.7354 28.3643C82.8311 28.223 82.8789 27.888 82.8789 27.3594V21.3711C82.8789 20.7878 82.8151 20.4255 82.6875 20.2842C82.5098 20.0837 82.2454 19.9834 81.8945 19.9834H81.5459V19.7305H84.9229C85.9072 19.7305 86.6318 19.8034 87.0967 19.9492C87.5661 20.0905 87.9626 20.3548 88.2861 20.7422C88.6143 21.125 88.7783 21.583 88.7783 22.1162C88.7783 22.6859 88.5915 23.1803 88.2178 23.5996C87.8486 24.0189 87.2744 24.3151 86.4951 24.4883L88.4092 27.1475C88.8467 27.7581 89.2227 28.1637 89.5371 28.3643C89.8516 28.5648 90.2617 28.6924 90.7676 28.7471V29ZM84.1846 24.2354C84.2712 24.2354 84.3464 24.2376 84.4102 24.2422C84.474 24.2422 84.5264 24.2422 84.5674 24.2422C85.4515 24.2422 86.1169 24.0508 86.5635 23.668C87.0146 23.2852 87.2402 22.7975 87.2402 22.2051C87.2402 21.6263 87.0579 21.1569 86.6934 20.7969C86.3333 20.4323 85.8548 20.25 85.2578 20.25C84.9935 20.25 84.6357 20.2933 84.1846 20.3799V24.2354ZM97.0635 19.5186V22.7246H96.8105C96.7285 22.1094 96.5804 21.6195 96.3662 21.2549C96.1566 20.8903 95.8558 20.6009 95.4639 20.3867C95.0719 20.1725 94.6663 20.0654 94.2471 20.0654C93.7731 20.0654 93.3812 20.2113 93.0713 20.5029C92.7614 20.79 92.6064 21.1182 92.6064 21.4873C92.6064 21.7699 92.7044 22.0273 92.9004 22.2598C93.1829 22.6016 93.8551 23.0573 94.917 23.627C95.7829 24.0918 96.373 24.4495 96.6875 24.7002C97.0065 24.9463 97.2503 25.238 97.4189 25.5752C97.5921 25.9124 97.6787 26.2656 97.6787 26.6348C97.6787 27.3366 97.4053 27.9427 96.8584 28.4531C96.3161 28.959 95.6165 29.2119 94.7598 29.2119C94.4909 29.2119 94.238 29.1914 94.001 29.1504C93.8597 29.1276 93.5658 29.0456 93.1191 28.9043C92.6771 28.7585 92.3968 28.6855 92.2783 28.6855C92.1644 28.6855 92.0732 28.7197 92.0049 28.7881C91.9411 28.8564 91.8932 28.9977 91.8613 29.2119H91.6084V26.0332H91.8613C91.9798 26.6986 92.1393 27.1976 92.3398 27.5303C92.5404 27.8584 92.8457 28.1318 93.2559 28.3506C93.6706 28.5693 94.124 28.6787 94.6162 28.6787C95.1859 28.6787 95.6348 28.5283 95.9629 28.2275C96.2956 27.9268 96.4619 27.5713 96.4619 27.1611C96.4619 26.9333 96.3981 26.7031 96.2705 26.4707C96.1475 26.2383 95.9538 26.0218 95.6895 25.8213C95.5117 25.6846 95.0264 25.3952 94.2334 24.9531C93.4404 24.5065 92.8753 24.151 92.5381 23.8867C92.2054 23.6224 91.9525 23.3307 91.7793 23.0117C91.6061 22.6927 91.5195 22.3418 91.5195 21.959C91.5195 21.2936 91.7747 20.7217 92.2852 20.2432C92.7956 19.7601 93.445 19.5186 94.2334 19.5186C94.7256 19.5186 95.2474 19.6393 95.7988 19.8809C96.054 19.9948 96.234 20.0518 96.3389 20.0518C96.4574 20.0518 96.5531 20.0176 96.626 19.9492C96.7035 19.8763 96.765 19.7327 96.8105 19.5186H97.0635ZM102.758 28.7471V29H98.7861V28.7471H99.1143C99.4971 28.7471 99.7751 28.6354 99.9482 28.4121C100.058 28.2663 100.112 27.9154 100.112 27.3594V21.3711C100.112 20.9017 100.083 20.5918 100.023 20.4414C99.9779 20.3275 99.8844 20.2295 99.7432 20.1475C99.5426 20.0381 99.333 19.9834 99.1143 19.9834H98.7861V19.7305H102.758V19.9834H102.423C102.045 19.9834 101.769 20.0951 101.596 20.3184C101.482 20.4642 101.425 20.8151 101.425 21.3711V27.3594C101.425 27.8288 101.454 28.1387 101.514 28.2891C101.559 28.403 101.655 28.501 101.801 28.583C101.997 28.6924 102.204 28.7471 102.423 28.7471H102.758ZM111.2 19.7305L111.303 21.9043H111.043C110.993 21.5215 110.924 21.248 110.838 21.084C110.697 20.8197 110.507 20.626 110.271 20.5029C110.038 20.3753 109.73 20.3115 109.348 20.3115H108.042V27.3936C108.042 27.9632 108.104 28.3187 108.227 28.46C108.4 28.6514 108.666 28.7471 109.026 28.7471H109.348V29H105.417V28.7471H105.745C106.137 28.7471 106.415 28.6286 106.579 28.3916C106.679 28.2458 106.729 27.9131 106.729 27.3936V20.3115H105.615C105.182 20.3115 104.875 20.3434 104.692 20.4072C104.455 20.4938 104.253 20.6602 104.084 20.9062C103.915 21.1523 103.815 21.485 103.783 21.9043H103.523L103.633 19.7305H111.2ZM118.33 19.7305H121.563V19.9834H121.386C121.267 19.9834 121.094 20.0358 120.866 20.1406C120.638 20.2454 120.431 20.3958 120.244 20.5918C120.057 20.7878 119.827 21.1068 119.554 21.5488L117.318 25.0693V27.3936C117.318 27.9632 117.382 28.3187 117.51 28.46C117.683 28.6514 117.956 28.7471 118.33 28.7471H118.631V29H114.693V28.7471H115.021C115.413 28.7471 115.691 28.6286 115.855 28.3916C115.956 28.2458 116.006 27.9131 116.006 27.3936V25.1992L113.463 21.3164C113.162 20.8607 112.957 20.5758 112.848 20.4619C112.743 20.348 112.522 20.2113 112.185 20.0518C112.093 20.0062 111.961 19.9834 111.788 19.9834V19.7305H115.753V19.9834H115.548C115.334 19.9834 115.135 20.0335 114.953 20.1338C114.775 20.234 114.687 20.3844 114.687 20.585C114.687 20.749 114.826 21.0452 115.104 21.4736L117.038 24.4609L118.856 21.6035C119.13 21.1751 119.267 20.8561 119.267 20.6465C119.267 20.5189 119.232 20.4049 119.164 20.3047C119.1 20.2044 119.007 20.127 118.884 20.0723C118.761 20.013 118.576 19.9834 118.33 19.9834V19.7305ZM129.076 28.7471V29H125.104V28.7471H125.433C125.815 28.7471 126.093 28.6354 126.267 28.4121C126.376 28.2663 126.431 27.9154 126.431 27.3594V21.3711C126.431 20.9017 126.401 20.5918 126.342 20.4414C126.296 20.3275 126.203 20.2295 126.062 20.1475C125.861 20.0381 125.651 19.9834 125.433 19.9834H125.104V19.7305H129.076V19.9834H128.741C128.363 19.9834 128.087 20.0951 127.914 20.3184C127.8 20.4642 127.743 20.8151 127.743 21.3711V27.3594C127.743 27.8288 127.773 28.1387 127.832 28.2891C127.878 28.403 127.973 28.501 128.119 28.583C128.315 28.6924 128.522 28.7471 128.741 28.7471H129.076ZM129.233 19.7305H131.749L137.416 26.6826V21.3369C137.416 20.7673 137.352 20.4118 137.225 20.2705C137.056 20.0791 136.789 19.9834 136.425 19.9834H136.104V19.7305H139.33V19.9834H139.002C138.61 19.9834 138.332 20.1019 138.168 20.3389C138.068 20.4847 138.018 20.8174 138.018 21.3369V29.1504H137.771L131.66 21.6855V27.3936C131.66 27.9632 131.722 28.3187 131.845 28.46C132.018 28.6514 132.285 28.7471 132.645 28.7471H132.973V29H129.746V28.7471H130.067C130.464 28.7471 130.744 28.6286 130.908 28.3916C131.008 28.2458 131.059 27.9131 131.059 27.3936V20.9473C130.79 20.6328 130.585 20.4255 130.443 20.3252C130.307 20.2249 130.104 20.1315 129.835 20.0449C129.703 20.0039 129.502 19.9834 129.233 19.9834V19.7305ZM150.876 19.7305L150.979 21.9043H150.719C150.669 21.5215 150.6 21.248 150.514 21.084C150.372 20.8197 150.183 20.626 149.946 20.5029C149.714 20.3753 149.406 20.3115 149.023 20.3115H147.718V27.3936C147.718 27.9632 147.779 28.3187 147.902 28.46C148.076 28.6514 148.342 28.7471 148.702 28.7471H149.023V29H145.093V28.7471H145.421C145.813 28.7471 146.091 28.6286 146.255 28.3916C146.355 28.2458 146.405 27.9131 146.405 27.3936V20.3115H145.291C144.858 20.3115 144.55 20.3434 144.368 20.4072C144.131 20.4938 143.928 20.6602 143.76 20.9062C143.591 21.1523 143.491 21.485 143.459 21.9043H143.199L143.309 19.7305H150.876ZM156.618 25.8965H153.029L152.4 27.3594C152.245 27.7194 152.168 27.9883 152.168 28.166C152.168 28.3073 152.234 28.4326 152.366 28.542C152.503 28.6468 152.795 28.7152 153.241 28.7471V29H150.322V28.7471C150.71 28.6787 150.96 28.5898 151.074 28.4805C151.307 28.2617 151.564 27.8174 151.847 27.1475L155.107 19.5186H155.347L158.573 27.2295C158.833 27.8493 159.068 28.2526 159.277 28.4395C159.492 28.6217 159.788 28.7243 160.166 28.7471V29H156.509V28.7471C156.878 28.7288 157.126 28.6673 157.254 28.5625C157.386 28.4577 157.452 28.3301 157.452 28.1797C157.452 27.9792 157.361 27.6624 157.179 27.2295L156.618 25.8965ZM156.427 25.3906L154.854 21.6445L153.241 25.3906H156.427ZM166.749 19.5186V22.7246H166.496C166.414 22.1094 166.266 21.6195 166.052 21.2549C165.842 20.8903 165.541 20.6009 165.149 20.3867C164.757 20.1725 164.352 20.0654 163.933 20.0654C163.459 20.0654 163.067 20.2113 162.757 20.5029C162.447 20.79 162.292 21.1182 162.292 21.4873C162.292 21.7699 162.39 22.0273 162.586 22.2598C162.868 22.6016 163.541 23.0573 164.603 23.627C165.468 24.0918 166.059 24.4495 166.373 24.7002C166.692 24.9463 166.936 25.238 167.104 25.5752C167.278 25.9124 167.364 26.2656 167.364 26.6348C167.364 27.3366 167.091 27.9427 166.544 28.4531C166.002 28.959 165.302 29.2119 164.445 29.2119C164.176 29.2119 163.924 29.1914 163.687 29.1504C163.545 29.1276 163.251 29.0456 162.805 28.9043C162.363 28.7585 162.082 28.6855 161.964 28.6855C161.85 28.6855 161.759 28.7197 161.69 28.7881C161.627 28.8564 161.579 28.9977 161.547 29.2119H161.294V26.0332H161.547C161.665 26.6986 161.825 27.1976 162.025 27.5303C162.226 27.8584 162.531 28.1318 162.941 28.3506C163.356 28.5693 163.81 28.6787 164.302 28.6787C164.871 28.6787 165.32 28.5283 165.648 28.2275C165.981 27.9268 166.147 27.5713 166.147 27.1611C166.147 26.9333 166.084 26.7031 165.956 26.4707C165.833 26.2383 165.639 26.0218 165.375 25.8213C165.197 25.6846 164.712 25.3952 163.919 24.9531C163.126 24.5065 162.561 24.151 162.224 23.8867C161.891 23.6224 161.638 23.3307 161.465 23.0117C161.292 22.6927 161.205 22.3418 161.205 21.959C161.205 21.2936 161.46 20.7217 161.971 20.2432C162.481 19.7601 163.131 19.5186 163.919 19.5186C164.411 19.5186 164.933 19.6393 165.484 19.8809C165.74 19.9948 165.92 20.0518 166.024 20.0518C166.143 20.0518 166.239 20.0176 166.312 19.9492C166.389 19.8763 166.451 19.7327 166.496 19.5186H166.749ZM171.001 24.0303H175.308V21.3779C175.308 20.904 175.278 20.5918 175.219 20.4414C175.173 20.3275 175.077 20.2295 174.932 20.1475C174.736 20.0381 174.528 19.9834 174.31 19.9834H173.981V19.7305H177.946V19.9834H177.618C177.399 19.9834 177.192 20.0358 176.996 20.1406C176.85 20.2135 176.75 20.3252 176.695 20.4756C176.645 20.6214 176.62 20.9222 176.62 21.3779V27.3594C176.62 27.8288 176.65 28.1387 176.709 28.2891C176.755 28.403 176.848 28.501 176.989 28.583C177.19 28.6924 177.399 28.7471 177.618 28.7471H177.946V29H173.981V28.7471H174.31C174.688 28.7471 174.964 28.6354 175.137 28.4121C175.251 28.2663 175.308 27.9154 175.308 27.3594V24.5361H171.001V27.3594C171.001 27.8288 171.031 28.1387 171.09 28.2891C171.135 28.403 171.231 28.501 171.377 28.583C171.573 28.6924 171.78 28.7471 171.999 28.7471H172.334V29H168.362V28.7471H168.69C169.073 28.7471 169.351 28.6354 169.524 28.4121C169.634 28.2663 169.688 27.9154 169.688 27.3594V21.3779C169.688 20.904 169.659 20.5918 169.6 20.4414C169.554 20.3275 169.461 20.2295 169.319 20.1475C169.119 20.0381 168.909 19.9834 168.69 19.9834H168.362V19.7305H172.334V19.9834H171.999C171.78 19.9834 171.573 20.0358 171.377 20.1406C171.236 20.2135 171.138 20.3252 171.083 20.4756C171.028 20.6214 171.001 20.9222 171.001 21.3779V24.0303ZM182.424 23.8594L185.842 27.2568C186.402 27.8174 186.881 28.2002 187.277 28.4053C187.674 28.6058 188.07 28.7197 188.467 28.7471V29H184.058V28.7471C184.322 28.7471 184.511 28.7038 184.625 28.6172C184.743 28.526 184.803 28.4258 184.803 28.3164C184.803 28.207 184.78 28.109 184.734 28.0225C184.693 27.9359 184.552 27.7741 184.311 27.5371L181.111 24.3721V27.3594C181.111 27.8288 181.141 28.1387 181.2 28.2891C181.246 28.403 181.341 28.501 181.487 28.583C181.683 28.6924 181.891 28.7471 182.109 28.7471H182.424V29H178.473V28.7471H178.801C179.184 28.7471 179.462 28.6354 179.635 28.4121C179.744 28.2663 179.799 27.9154 179.799 27.3594V21.3711C179.799 20.9017 179.769 20.5895 179.71 20.4346C179.664 20.3252 179.571 20.2295 179.43 20.1475C179.229 20.0381 179.02 19.9834 178.801 19.9834H178.473V19.7305H182.424V19.9834H182.109C181.895 19.9834 181.688 20.0358 181.487 20.1406C181.346 20.2135 181.248 20.3229 181.193 20.4688C181.139 20.6146 181.111 20.9154 181.111 21.3711V24.208C181.202 24.1214 181.515 23.832 182.048 23.3398C183.401 22.1003 184.219 21.2731 184.502 20.8584C184.625 20.6761 184.687 20.5166 184.687 20.3799C184.687 20.2751 184.639 20.1839 184.543 20.1064C184.447 20.0244 184.285 19.9834 184.058 19.9834H183.846V19.7305H187.25V19.9834C187.049 19.988 186.867 20.0153 186.703 20.0654C186.539 20.1156 186.339 20.2135 186.102 20.3594C185.865 20.5007 185.573 20.7308 185.227 21.0498C185.126 21.141 184.664 21.6081 183.839 22.4512L182.424 23.8594ZM191.283 20.2363V23.9004H193.32C193.849 23.9004 194.202 23.8206 194.38 23.6611C194.617 23.4515 194.749 23.0824 194.776 22.5537H195.029V25.7803H194.776C194.713 25.3291 194.649 25.0397 194.585 24.9121C194.503 24.7526 194.368 24.6273 194.182 24.5361C193.995 24.445 193.708 24.3994 193.32 24.3994H191.283V27.4551C191.283 27.8652 191.301 28.1159 191.338 28.207C191.374 28.2936 191.438 28.3643 191.529 28.4189C191.62 28.4691 191.794 28.4941 192.049 28.4941H193.621C194.145 28.4941 194.526 28.4577 194.763 28.3848C195 28.3118 195.228 28.1683 195.446 27.9541C195.729 27.6715 196.018 27.2454 196.314 26.6758H196.588L195.788 29H188.645V28.7471H188.973C189.191 28.7471 189.399 28.6947 189.595 28.5898C189.741 28.5169 189.839 28.4076 189.889 28.2617C189.943 28.1159 189.971 27.8174 189.971 27.3662V21.3438C189.971 20.7559 189.911 20.3936 189.793 20.2568C189.629 20.0745 189.355 19.9834 188.973 19.9834H188.645V19.7305H195.788L195.891 21.7607H195.624C195.528 21.2731 195.421 20.9382 195.303 20.7559C195.189 20.5736 195.018 20.4346 194.79 20.3389C194.608 20.2705 194.286 20.2363 193.826 20.2363H191.283ZM196.731 19.7305H199.247L204.914 26.6826V21.3369C204.914 20.7673 204.85 20.4118 204.723 20.2705C204.554 20.0791 204.287 19.9834 203.923 19.9834H203.602V19.7305H206.828V19.9834H206.5C206.108 19.9834 205.83 20.1019 205.666 20.3389C205.566 20.4847 205.516 20.8174 205.516 21.3369V29.1504H205.27L199.158 21.6855V27.3936C199.158 27.9632 199.22 28.3187 199.343 28.46C199.516 28.6514 199.783 28.7471 200.143 28.7471H200.471V29H197.244V28.7471H197.565C197.962 28.7471 198.242 28.6286 198.406 28.3916C198.507 28.2458 198.557 27.9131 198.557 27.3936V20.9473C198.288 20.6328 198.083 20.4255 197.941 20.3252C197.805 20.2249 197.602 20.1315 197.333 20.0449C197.201 20.0039 197 19.9834 196.731 19.9834V19.7305ZM215.134 19.7305L215.236 21.9043H214.977C214.926 21.5215 214.858 21.248 214.771 21.084C214.63 20.8197 214.441 20.626 214.204 20.5029C213.972 20.3753 213.664 20.3115 213.281 20.3115H211.976V27.3936C211.976 27.9632 212.037 28.3187 212.16 28.46C212.333 28.6514 212.6 28.7471 212.96 28.7471H213.281V29H209.351V28.7471H209.679C210.071 28.7471 210.349 28.6286 210.513 28.3916C210.613 28.2458 210.663 27.9131 210.663 27.3936V20.3115H209.549C209.116 20.3115 208.808 20.3434 208.626 20.4072C208.389 20.4938 208.186 20.6602 208.018 20.9062C207.849 21.1523 207.749 21.485 207.717 21.9043H207.457L207.566 19.7305H215.134Z" transform="translate(228 20) scale(4)" fill="#0065B3"/>
</svg>
