<svg xmlns="http://www.w3.org/2000/svg" width="250px" xmlns:xlink="http://www.w3.org/1999/xlink" viewBox="6553 -366 500 125"><defs><style>.a{clip-path:url(#b);}.b{fill:#c8102e;}.c{fill:#43b02a;}.d{fill:#fff;}</style><clipPath id="b"><rect x="6553" y="-366" width="500" height="125"/></clipPath></defs><g id="a" class="a"><g transform="translate(5833 -592)"><g transform="translate(720.015 228.001)"><g transform="translate(-0.015 -0.001)"><path class="b" d="M43.068,87.392A42.966,42.966,0,0,1,16.1,10.887a6.8,6.8,0,1,1,8.537,10.554,29.41,29.41,0,1,0,36.869,0A6.8,6.8,0,1,1,70.04,10.887a42.966,42.966,0,0,1-26.971,76.5" transform="translate(0.015 33.54)"/><path class="c" d="M44.5,13.193A6.8,6.8,0,1,0,35.733,2.826C14.765,20.557,8.855,39.6,7.589,52.453a57.789,57.789,0,0,0,2.533,24.579A6.8,6.8,0,0,0,22.786,72.06,45.968,45.968,0,0,1,21.192,53.3,61.307,61.307,0,0,1,44.645,13.333" transform="translate(26.723 3.513)"/><path class="c" d="M47.581,5.494s-6.8,14.588-19.419,18.481-26.5-4.409-26.5-4.409S8.415,4.931,21.126,1.037s26.5,4.409,26.5,4.409" transform="translate(6.196 0.001)"/><path class="d" d="M64.444,36.237h0A13.228,13.228,0,0,0,51.311,22.493,12.759,12.759,0,0,0,38.364,36.049h0A13.228,13.228,0,0,0,51.5,49.793,12.759,12.759,0,0,0,64.444,36.237m-39.964,0h0A26.174,26.174,0,0,1,51.592,10.016,25.892,25.892,0,0,1,78.516,35.862h0A26.174,26.174,0,0,1,51.451,61.8,25.892,25.892,0,0,1,24.574,36.049" transform="translate(90.417 36.897)"/><path class="d" d="M38.3,12.7a7.083,7.083,0,0,1,14.072,0V67.536a7.083,7.083,0,0,1-14.072,0Z" transform="translate(141.422 23.751)"/><path class="d" d="M43.647,36.246h0A25.564,25.564,0,0,1,69.774,10.025,24.954,24.954,0,0,1,86.8,15.607,6.239,6.239,0,0,1,89.052,20.3a6.332,6.332,0,0,1-6.426,6.332,6.661,6.661,0,0,1-4.081-1.407,13.462,13.462,0,0,0-8.818-3.143,12.712,12.712,0,0,0-12.1,13.556h0A12.759,12.759,0,0,0,70.29,49.38a14.307,14.307,0,0,0,9.381-3.424,6.567,6.567,0,0,1,3.8-1.313,6,6,0,0,1,3.893,10.507A24.532,24.532,0,0,1,69.68,61.575,25.423,25.423,0,0,1,43.741,35.824" transform="translate(161.123 36.889)"/><path class="d" d="M55.47,12.7a7.083,7.083,0,0,1,14.072,0V31.465a17.637,17.637,0,0,1,14.682-8.3c10.695,0,16.933,7.083,16.933,18.481V67.4a7.083,7.083,0,0,1-14.072,0V46.241c0-6.708-3.143-10.132-8.537-10.132S69.73,39.533,69.73,46.241v21.3a7.083,7.083,0,0,1-14.072,0Z" transform="translate(204.79 23.751)"/><path class="d" d="M99.686,42.949V40.463a21.905,21.905,0,0,0-9.006-1.876c-6.051,0-9.757,2.439-9.757,6.9h0c0,3.8,3.143,6.051,7.74,6.051,6.614,0,11.07-3.612,11.07-8.725M67.274,46.045h0c0-10.882,8.256-15.9,20.076-15.9a35.461,35.461,0,0,1,12.2,2.064v-.844c0-5.863-3.612-9.1-10.695-9.1a32.412,32.412,0,0,0-9.757,1.407,6,6,0,0,1-2.064.375,5.769,5.769,0,0,1-6-5.816,5.863,5.863,0,0,1,3.8-5.488,43.389,43.389,0,0,1,15.9-2.58,23.031,23.031,0,0,1,16.839,5.582A21.718,21.718,0,0,1,113.242,31.6V54.254a6.8,6.8,0,0,1-7.083,6.989,6.332,6.332,0,0,1-6.989-6.051h0A19.185,19.185,0,0,1,84.3,61.243C74.92,61.243,67.18,55.848,67.18,46" transform="translate(248.008 37.268)"/><path class="d" d="M87.385,17.554a7.833,7.833,0,0,1,8.068,7.88h0a8.115,8.115,0,0,1-16.183,0h0a7.833,7.833,0,0,1,8.115-7.88" transform="translate(292.628 64.774)"/><path class="d" d="M130.79,53.364a7.083,7.083,0,0,1-14.072,0V52.8a17.637,17.637,0,0,1-14.635,7.786c-10.695,0-16.933-7.083-16.933-18.481V16.543a7.083,7.083,0,0,1,14.072,0v21.3c0,6.708,3.143,10.132,8.537,10.132s8.818-3.424,8.818-10.132v-21.3a7.083,7.083,0,0,1,14.072,0Z" transform="translate(314.329 37.923)"/><path class="d" d="M97.1,54.438v-.281a9.381,9.381,0,0,1,3.143-6.9L123.415,21.7h-19.7a5.723,5.723,0,1,1,0-11.445h30.958a6.1,6.1,0,0,1,6.9,5.676v.281a9.381,9.381,0,0,1-3.19,7.13L114.925,48.9h20.639a5.723,5.723,0,1,1,0,11.445H104a6.1,6.1,0,0,1-6.9-5.676" transform="translate(358.432 37.646)"/></g></g></g></g></svg>